<?xml version="1.0" encoding="utf-8" standalone="no"?>
<!DOCTYPE svg PUBLIC "-//W3C//DTD SVG 1.1//EN"
  "http://www.w3.org/Graphics/SVG/1.1/DTD/svg11.dtd">
<svg xmlns:xlink="http://www.w3.org/1999/xlink" width="720pt" height="600pt" viewBox="0 0 720 600" xmlns="http://www.w3.org/2000/svg" version="1.1">
 <metadata>
  <rdf:RDF xmlns:dc="http://purl.org/dc/elements/1.1/" xmlns:cc="http://creativecommons.org/ns#" xmlns:rdf="http://www.w3.org/1999/02/22-rdf-syntax-ns#">
   <cc:Work>
    <dc:type rdf:resource="http://purl.org/dc/dcmitype/StillImage"/>
    <dc:date>2024-06-09T09:26:40.740410</dc:date>
    <dc:format>image/svg+xml</dc:format>
    <dc:creator>
     <cc:Agent>
      <dc:title>Matplotlib v3.8.1, https://matplotlib.org/</dc:title>
     </cc:Agent>
    </dc:creator>
   </cc:Work>
  </rdf:RDF>
 </metadata>
 <defs>
  <style type="text/css">*{stroke-linejoin: round; stroke-linecap: butt}</style>
 </defs>
 <g id="figure_1">
  <g id="patch_1">
   <path d="M 0 600 
L 720 600 
L 720 0 
L 0 0 
z
" style="fill: #ffffff"/>
  </g>
  <g id="axes_1">
   <g id="patch_2">
    <path d="M 52.234615 386.249091 
L 716.99976 386.249091 
L 716.99976 34.385595 
L 52.234615 34.385595 
z
" style="fill: #ffffff"/>
   </g>
   <g id="patch_3">
    <path d="M 52.234615 379.157793 
L 52.310283 379.157793 
L 52.310283 363.981123 
L 52.234615 363.981123 
z
" clip-path="url(#p3ca7e91281)" style="fill: #0077b6"/>
   </g>
   <g id="patch_4">
    <path d="M 52.234615 360.186956 
L 52.310283 360.186956 
L 52.310283 345.010286 
L 52.234615 345.010286 
z
" clip-path="url(#p3ca7e91281)" style="fill: #0077b6"/>
   </g>
   <g id="patch_5">
    <path d="M 52.234615 341.216119 
L 52.612955 341.216119 
L 52.612955 326.039449 
L 52.234615 326.039449 
z
" clip-path="url(#p3ca7e91281)" style="fill: #0077b6"/>
   </g>
   <g id="patch_6">
    <path d="M 52.234615 322.245282 
L 57.077371 322.245282 
L 57.077371 307.068612 
L 52.234615 307.068612 
z
" clip-path="url(#p3ca7e91281)" style="fill: #3eccbb; stroke: #3eccbb; stroke-linejoin: miter"/>
   </g>
   <g id="patch_7">
    <path d="M 52.234615 303.274445 
L 57.153039 303.274445 
L 57.153039 288.097775 
L 52.234615 288.097775 
z
" clip-path="url(#p3ca7e91281)" style="fill: #eed595; stroke: #eed595; stroke-linejoin: miter"/>
   </g>
   <g id="patch_8">
    <path d="M 52.234615 284.303608 
L 57.304375 284.303608 
L 57.304375 269.126938 
L 52.234615 269.126938 
z
" clip-path="url(#p3ca7e91281)" style="fill: #0077b6"/>
   </g>
   <g id="patch_9">
    <path d="M 52.234615 265.332771 
L 129.794382 265.332771 
L 129.794382 250.156101 
L 52.234615 250.156101 
z
" clip-path="url(#p3ca7e91281)" style="fill: #f4a261; stroke: #f4a261; stroke-linejoin: miter"/>
   </g>
   <g id="patch_10">
    <path d="M 52.234615 246.361934 
L 131.761752 246.361934 
L 131.761752 231.185264 
L 52.234615 231.185264 
z
" clip-path="url(#p3ca7e91281)" style="fill: #3eccbb; stroke: #3eccbb; stroke-linejoin: miter"/>
   </g>
   <g id="patch_11">
    <path d="M 52.234615 227.391097 
L 132.821105 227.391097 
L 132.821105 212.214427 
L 52.234615 212.214427 
z
" clip-path="url(#p3ca7e91281)" style="fill: #3eccbb; stroke: #3eccbb; stroke-linejoin: miter"/>
   </g>
   <g id="patch_12">
    <path d="M 52.234615 208.42026 
L 134.864143 208.42026 
L 134.864143 193.24359 
L 52.234615 193.24359 
z
" clip-path="url(#p3ca7e91281)" style="fill: #f4a261; stroke: #f4a261; stroke-linejoin: miter"/>
   </g>
   <g id="patch_13">
    <path d="M 52.234615 189.449423 
L 207.202814 189.449423 
L 207.202814 174.272753 
L 52.234615 174.272753 
z
" clip-path="url(#p3ca7e91281)" style="fill: #3eccbb; stroke: #3eccbb; stroke-linejoin: miter"/>
   </g>
   <g id="patch_14">
    <path d="M 52.234615 170.478585 
L 459.026137 170.478585 
L 459.026137 155.301916 
L 52.234615 155.301916 
z
" clip-path="url(#p3ca7e91281)" style="fill: #0077b6"/>
   </g>
   <g id="patch_15">
    <path d="M 52.234615 151.507748 
L 471.284363 151.507748 
L 471.284363 136.331079 
L 52.234615 136.331079 
z
" clip-path="url(#p3ca7e91281)" style="fill: #0077b6"/>
   </g>
   <g id="patch_16">
    <path d="M 52.234615 132.536911 
L 594.623311 132.536911 
L 594.623311 117.360242 
L 52.234615 117.360242 
z
" clip-path="url(#p3ca7e91281)" style="fill: #0077b6"/>
   </g>
   <g id="patch_17">
    <path d="M 52.234615 113.566074 
L 594.623311 113.566074 
L 594.623311 98.389405 
L 52.234615 98.389405 
z
" clip-path="url(#p3ca7e91281)" style="fill: #0077b6"/>
   </g>
   <g id="patch_18">
    <path d="M 52.234615 94.595237 
L 595.834 94.595237 
L 595.834 79.418568 
L 52.234615 79.418568 
z
" clip-path="url(#p3ca7e91281)" style="fill: #eed595; stroke: #eed595; stroke-linejoin: miter"/>
   </g>
   <g id="patch_19">
    <path d="M 52.234615 75.6244 
L 600.676756 75.6244 
L 600.676756 60.447731 
L 52.234615 60.447731 
z
" clip-path="url(#p3ca7e91281)" style="fill: #0077b6"/>
   </g>
   <g id="patch_20">
    <path d="M 52.234615 56.653563 
L 679.371544 56.653563 
L 679.371544 41.476894 
L 52.234615 41.476894 
z
" clip-path="url(#p3ca7e91281)" style="fill: #eed595; stroke: #eed595; stroke-linejoin: miter"/>
   </g>
   <g id="patch_21">
    <path d="M 52.234615 379.157793 
L 52.234615 379.157793 
L 52.234615 363.981123 
L 52.234615 363.981123 
z
" clip-path="url(#p3ca7e91281)" style="fill: #3eccbb"/>
   </g>
   <g id="patch_22">
    <path d="M 52.234615 379.157793 
L 52.234615 379.157793 
L 52.234615 363.981123 
L 52.234615 363.981123 
z
" clip-path="url(#p3ca7e91281)" style="fill: #eed595"/>
   </g>
   <g id="patch_23">
    <path d="M 52.234615 379.157793 
L 52.234615 379.157793 
L 52.234615 363.981123 
L 52.234615 363.981123 
z
" clip-path="url(#p3ca7e91281)" style="fill: #f4a261"/>
   </g>
   <g id="matplotlib.axis_1">
    <g id="xtick_1">
     <g id="line2d_1">
      <path d="M 52.234615 386.249091 
L 52.234615 34.385595 
" clip-path="url(#p3ca7e91281)" style="fill: none; stroke: #b0b0b0; stroke-width: 0.8; stroke-linecap: square"/>
     </g>
     <g id="line2d_2">
      <defs>
       <path id="m917c30d8fa" d="M 0 0 
L 0 3.5 
" style="stroke: #000000; stroke-width: 0.8"/>
      </defs>
      <g>
       <use xlink:href="#m917c30d8fa" x="52.234615" y="386.249091" style="stroke: #000000; stroke-width: 0.8"/>
      </g>
     </g>
     <g id="text_1">
      <!-- 0 -->
      <g transform="translate(49.053365 400.847529) scale(0.1 -0.1)">
       <defs>
        <path id="DejaVuSans-30" d="M 2034 4250 
Q 1547 4250 1301 3770 
Q 1056 3291 1056 2328 
Q 1056 1369 1301 889 
Q 1547 409 2034 409 
Q 2525 409 2770 889 
Q 3016 1369 3016 2328 
Q 3016 3291 2770 3770 
Q 2525 4250 2034 4250 
z
M 2034 4750 
Q 2819 4750 3233 4129 
Q 3647 3509 3647 2328 
Q 3647 1150 3233 529 
Q 2819 -91 2034 -91 
Q 1250 -91 836 529 
Q 422 1150 422 2328 
Q 422 3509 836 4129 
Q 1250 4750 2034 4750 
z
" transform="scale(0.015625)"/>
       </defs>
       <use xlink:href="#DejaVuSans-30"/>
      </g>
     </g>
    </g>
    <g id="xtick_2">
     <g id="line2d_3">
      <path d="M 127.902681 386.249091 
L 127.902681 34.385595 
" clip-path="url(#p3ca7e91281)" style="fill: none; stroke: #b0b0b0; stroke-width: 0.8; stroke-linecap: square"/>
     </g>
     <g id="line2d_4">
      <g>
       <use xlink:href="#m917c30d8fa" x="127.902681" y="386.249091" style="stroke: #000000; stroke-width: 0.8"/>
      </g>
     </g>
     <g id="text_2">
      <!-- 1000 -->
      <g transform="translate(115.177681 400.847529) scale(0.1 -0.1)">
       <defs>
        <path id="DejaVuSans-31" d="M 794 531 
L 1825 531 
L 1825 4091 
L 703 3866 
L 703 4441 
L 1819 4666 
L 2450 4666 
L 2450 531 
L 3481 531 
L 3481 0 
L 794 0 
L 794 531 
z
" transform="scale(0.015625)"/>
       </defs>
       <use xlink:href="#DejaVuSans-31"/>
       <use xlink:href="#DejaVuSans-30" x="63.623047"/>
       <use xlink:href="#DejaVuSans-30" x="127.246094"/>
       <use xlink:href="#DejaVuSans-30" x="190.869141"/>
      </g>
     </g>
    </g>
    <g id="xtick_3">
     <g id="line2d_5">
      <path d="M 203.570747 386.249091 
L 203.570747 34.385595 
" clip-path="url(#p3ca7e91281)" style="fill: none; stroke: #b0b0b0; stroke-width: 0.8; stroke-linecap: square"/>
     </g>
     <g id="line2d_6">
      <g>
       <use xlink:href="#m917c30d8fa" x="203.570747" y="386.249091" style="stroke: #000000; stroke-width: 0.8"/>
      </g>
     </g>
     <g id="text_3">
      <!-- 2000 -->
      <g transform="translate(190.845747 400.847529) scale(0.1 -0.1)">
       <defs>
        <path id="DejaVuSans-32" d="M 1228 531 
L 3431 531 
L 3431 0 
L 469 0 
L 469 531 
Q 828 903 1448 1529 
Q 2069 2156 2228 2338 
Q 2531 2678 2651 2914 
Q 2772 3150 2772 3378 
Q 2772 3750 2511 3984 
Q 2250 4219 1831 4219 
Q 1534 4219 1204 4116 
Q 875 4013 500 3803 
L 500 4441 
Q 881 4594 1212 4672 
Q 1544 4750 1819 4750 
Q 2544 4750 2975 4387 
Q 3406 4025 3406 3419 
Q 3406 3131 3298 2873 
Q 3191 2616 2906 2266 
Q 2828 2175 2409 1742 
Q 1991 1309 1228 531 
z
" transform="scale(0.015625)"/>
       </defs>
       <use xlink:href="#DejaVuSans-32"/>
       <use xlink:href="#DejaVuSans-30" x="63.623047"/>
       <use xlink:href="#DejaVuSans-30" x="127.246094"/>
       <use xlink:href="#DejaVuSans-30" x="190.869141"/>
      </g>
     </g>
    </g>
    <g id="xtick_4">
     <g id="line2d_7">
      <path d="M 279.238812 386.249091 
L 279.238812 34.385595 
" clip-path="url(#p3ca7e91281)" style="fill: none; stroke: #b0b0b0; stroke-width: 0.8; stroke-linecap: square"/>
     </g>
     <g id="line2d_8">
      <g>
       <use xlink:href="#m917c30d8fa" x="279.238812" y="386.249091" style="stroke: #000000; stroke-width: 0.8"/>
      </g>
     </g>
     <g id="text_4">
      <!-- 3000 -->
      <g transform="translate(266.513812 400.847529) scale(0.1 -0.1)">
       <defs>
        <path id="DejaVuSans-33" d="M 2597 2516 
Q 3050 2419 3304 2112 
Q 3559 1806 3559 1356 
Q 3559 666 3084 287 
Q 2609 -91 1734 -91 
Q 1441 -91 1130 -33 
Q 819 25 488 141 
L 488 750 
Q 750 597 1062 519 
Q 1375 441 1716 441 
Q 2309 441 2620 675 
Q 2931 909 2931 1356 
Q 2931 1769 2642 2001 
Q 2353 2234 1838 2234 
L 1294 2234 
L 1294 2753 
L 1863 2753 
Q 2328 2753 2575 2939 
Q 2822 3125 2822 3475 
Q 2822 3834 2567 4026 
Q 2313 4219 1838 4219 
Q 1578 4219 1281 4162 
Q 984 4106 628 3988 
L 628 4550 
Q 988 4650 1302 4700 
Q 1616 4750 1894 4750 
Q 2613 4750 3031 4423 
Q 3450 4097 3450 3541 
Q 3450 3153 3228 2886 
Q 3006 2619 2597 2516 
z
" transform="scale(0.015625)"/>
       </defs>
       <use xlink:href="#DejaVuSans-33"/>
       <use xlink:href="#DejaVuSans-30" x="63.623047"/>
       <use xlink:href="#DejaVuSans-30" x="127.246094"/>
       <use xlink:href="#DejaVuSans-30" x="190.869141"/>
      </g>
     </g>
    </g>
    <g id="xtick_5">
     <g id="line2d_9">
      <path d="M 354.906878 386.249091 
L 354.906878 34.385595 
" clip-path="url(#p3ca7e91281)" style="fill: none; stroke: #b0b0b0; stroke-width: 0.8; stroke-linecap: square"/>
     </g>
     <g id="line2d_10">
      <g>
       <use xlink:href="#m917c30d8fa" x="354.906878" y="386.249091" style="stroke: #000000; stroke-width: 0.8"/>
      </g>
     </g>
     <g id="text_5">
      <!-- 4000 -->
      <g transform="translate(342.181878 400.847529) scale(0.1 -0.1)">
       <defs>
        <path id="DejaVuSans-34" d="M 2419 4116 
L 825 1625 
L 2419 1625 
L 2419 4116 
z
M 2253 4666 
L 3047 4666 
L 3047 1625 
L 3713 1625 
L 3713 1100 
L 3047 1100 
L 3047 0 
L 2419 0 
L 2419 1100 
L 313 1100 
L 313 1709 
L 2253 4666 
z
" transform="scale(0.015625)"/>
       </defs>
       <use xlink:href="#DejaVuSans-34"/>
       <use xlink:href="#DejaVuSans-30" x="63.623047"/>
       <use xlink:href="#DejaVuSans-30" x="127.246094"/>
       <use xlink:href="#DejaVuSans-30" x="190.869141"/>
      </g>
     </g>
    </g>
    <g id="xtick_6">
     <g id="line2d_11">
      <path d="M 430.574944 386.249091 
L 430.574944 34.385595 
" clip-path="url(#p3ca7e91281)" style="fill: none; stroke: #b0b0b0; stroke-width: 0.8; stroke-linecap: square"/>
     </g>
     <g id="line2d_12">
      <g>
       <use xlink:href="#m917c30d8fa" x="430.574944" y="386.249091" style="stroke: #000000; stroke-width: 0.8"/>
      </g>
     </g>
     <g id="text_6">
      <!-- 5000 -->
      <g transform="translate(417.849944 400.847529) scale(0.1 -0.1)">
       <defs>
        <path id="DejaVuSans-35" d="M 691 4666 
L 3169 4666 
L 3169 4134 
L 1269 4134 
L 1269 2991 
Q 1406 3038 1543 3061 
Q 1681 3084 1819 3084 
Q 2600 3084 3056 2656 
Q 3513 2228 3513 1497 
Q 3513 744 3044 326 
Q 2575 -91 1722 -91 
Q 1428 -91 1123 -41 
Q 819 9 494 109 
L 494 744 
Q 775 591 1075 516 
Q 1375 441 1709 441 
Q 2250 441 2565 725 
Q 2881 1009 2881 1497 
Q 2881 1984 2565 2268 
Q 2250 2553 1709 2553 
Q 1456 2553 1204 2497 
Q 953 2441 691 2322 
L 691 4666 
z
" transform="scale(0.015625)"/>
       </defs>
       <use xlink:href="#DejaVuSans-35"/>
       <use xlink:href="#DejaVuSans-30" x="63.623047"/>
       <use xlink:href="#DejaVuSans-30" x="127.246094"/>
       <use xlink:href="#DejaVuSans-30" x="190.869141"/>
      </g>
     </g>
    </g>
    <g id="xtick_7">
     <g id="line2d_13">
      <path d="M 506.24301 386.249091 
L 506.24301 34.385595 
" clip-path="url(#p3ca7e91281)" style="fill: none; stroke: #b0b0b0; stroke-width: 0.8; stroke-linecap: square"/>
     </g>
     <g id="line2d_14">
      <g>
       <use xlink:href="#m917c30d8fa" x="506.24301" y="386.249091" style="stroke: #000000; stroke-width: 0.8"/>
      </g>
     </g>
     <g id="text_7">
      <!-- 6000 -->
      <g transform="translate(493.51801 400.847529) scale(0.1 -0.1)">
       <defs>
        <path id="DejaVuSans-36" d="M 2113 2584 
Q 1688 2584 1439 2293 
Q 1191 2003 1191 1497 
Q 1191 994 1439 701 
Q 1688 409 2113 409 
Q 2538 409 2786 701 
Q 3034 994 3034 1497 
Q 3034 2003 2786 2293 
Q 2538 2584 2113 2584 
z
M 3366 4563 
L 3366 3988 
Q 3128 4100 2886 4159 
Q 2644 4219 2406 4219 
Q 1781 4219 1451 3797 
Q 1122 3375 1075 2522 
Q 1259 2794 1537 2939 
Q 1816 3084 2150 3084 
Q 2853 3084 3261 2657 
Q 3669 2231 3669 1497 
Q 3669 778 3244 343 
Q 2819 -91 2113 -91 
Q 1303 -91 875 529 
Q 447 1150 447 2328 
Q 447 3434 972 4092 
Q 1497 4750 2381 4750 
Q 2619 4750 2861 4703 
Q 3103 4656 3366 4563 
z
" transform="scale(0.015625)"/>
       </defs>
       <use xlink:href="#DejaVuSans-36"/>
       <use xlink:href="#DejaVuSans-30" x="63.623047"/>
       <use xlink:href="#DejaVuSans-30" x="127.246094"/>
       <use xlink:href="#DejaVuSans-30" x="190.869141"/>
      </g>
     </g>
    </g>
    <g id="xtick_8">
     <g id="line2d_15">
      <path d="M 581.911076 386.249091 
L 581.911076 34.385595 
" clip-path="url(#p3ca7e91281)" style="fill: none; stroke: #b0b0b0; stroke-width: 0.8; stroke-linecap: square"/>
     </g>
     <g id="line2d_16">
      <g>
       <use xlink:href="#m917c30d8fa" x="581.911076" y="386.249091" style="stroke: #000000; stroke-width: 0.8"/>
      </g>
     </g>
     <g id="text_8">
      <!-- 7000 -->
      <g transform="translate(569.186076 400.847529) scale(0.1 -0.1)">
       <defs>
        <path id="DejaVuSans-37" d="M 525 4666 
L 3525 4666 
L 3525 4397 
L 1831 0 
L 1172 0 
L 2766 4134 
L 525 4134 
L 525 4666 
z
" transform="scale(0.015625)"/>
       </defs>
       <use xlink:href="#DejaVuSans-37"/>
       <use xlink:href="#DejaVuSans-30" x="63.623047"/>
       <use xlink:href="#DejaVuSans-30" x="127.246094"/>
       <use xlink:href="#DejaVuSans-30" x="190.869141"/>
      </g>
     </g>
    </g>
    <g id="xtick_9">
     <g id="line2d_17">
      <path d="M 657.579141 386.249091 
L 657.579141 34.385595 
" clip-path="url(#p3ca7e91281)" style="fill: none; stroke: #b0b0b0; stroke-width: 0.8; stroke-linecap: square"/>
     </g>
     <g id="line2d_18">
      <g>
       <use xlink:href="#m917c30d8fa" x="657.579141" y="386.249091" style="stroke: #000000; stroke-width: 0.8"/>
      </g>
     </g>
     <g id="text_9">
      <!-- 8000 -->
      <g transform="translate(644.854141 400.847529) scale(0.1 -0.1)">
       <defs>
        <path id="DejaVuSans-38" d="M 2034 2216 
Q 1584 2216 1326 1975 
Q 1069 1734 1069 1313 
Q 1069 891 1326 650 
Q 1584 409 2034 409 
Q 2484 409 2743 651 
Q 3003 894 3003 1313 
Q 3003 1734 2745 1975 
Q 2488 2216 2034 2216 
z
M 1403 2484 
Q 997 2584 770 2862 
Q 544 3141 544 3541 
Q 544 4100 942 4425 
Q 1341 4750 2034 4750 
Q 2731 4750 3128 4425 
Q 3525 4100 3525 3541 
Q 3525 3141 3298 2862 
Q 3072 2584 2669 2484 
Q 3125 2378 3379 2068 
Q 3634 1759 3634 1313 
Q 3634 634 3220 271 
Q 2806 -91 2034 -91 
Q 1263 -91 848 271 
Q 434 634 434 1313 
Q 434 1759 690 2068 
Q 947 2378 1403 2484 
z
M 1172 3481 
Q 1172 3119 1398 2916 
Q 1625 2713 2034 2713 
Q 2441 2713 2670 2916 
Q 2900 3119 2900 3481 
Q 2900 3844 2670 4047 
Q 2441 4250 2034 4250 
Q 1625 4250 1398 4047 
Q 1172 3844 1172 3481 
z
" transform="scale(0.015625)"/>
       </defs>
       <use xlink:href="#DejaVuSans-38"/>
       <use xlink:href="#DejaVuSans-30" x="63.623047"/>
       <use xlink:href="#DejaVuSans-30" x="127.246094"/>
       <use xlink:href="#DejaVuSans-30" x="190.869141"/>
      </g>
     </g>
    </g>
    <g id="text_10">
     <!-- Count -->
     <g transform="translate(369.76875 414.525654) scale(0.1 -0.1)">
      <defs>
       <path id="DejaVuSans-43" d="M 4122 4306 
L 4122 3641 
Q 3803 3938 3442 4084 
Q 3081 4231 2675 4231 
Q 1875 4231 1450 3742 
Q 1025 3253 1025 2328 
Q 1025 1406 1450 917 
Q 1875 428 2675 428 
Q 3081 428 3442 575 
Q 3803 722 4122 1019 
L 4122 359 
Q 3791 134 3420 21 
Q 3050 -91 2638 -91 
Q 1578 -91 968 557 
Q 359 1206 359 2328 
Q 359 3453 968 4101 
Q 1578 4750 2638 4750 
Q 3056 4750 3426 4639 
Q 3797 4528 4122 4306 
z
" transform="scale(0.015625)"/>
       <path id="DejaVuSans-6f" d="M 1959 3097 
Q 1497 3097 1228 2736 
Q 959 2375 959 1747 
Q 959 1119 1226 758 
Q 1494 397 1959 397 
Q 2419 397 2687 759 
Q 2956 1122 2956 1747 
Q 2956 2369 2687 2733 
Q 2419 3097 1959 3097 
z
M 1959 3584 
Q 2709 3584 3137 3096 
Q 3566 2609 3566 1747 
Q 3566 888 3137 398 
Q 2709 -91 1959 -91 
Q 1206 -91 779 398 
Q 353 888 353 1747 
Q 353 2609 779 3096 
Q 1206 3584 1959 3584 
z
" transform="scale(0.015625)"/>
       <path id="DejaVuSans-75" d="M 544 1381 
L 544 3500 
L 1119 3500 
L 1119 1403 
Q 1119 906 1312 657 
Q 1506 409 1894 409 
Q 2359 409 2629 706 
Q 2900 1003 2900 1516 
L 2900 3500 
L 3475 3500 
L 3475 0 
L 2900 0 
L 2900 538 
Q 2691 219 2414 64 
Q 2138 -91 1772 -91 
Q 1169 -91 856 284 
Q 544 659 544 1381 
z
M 1991 3584 
L 1991 3584 
z
" transform="scale(0.015625)"/>
       <path id="DejaVuSans-6e" d="M 3513 2113 
L 3513 0 
L 2938 0 
L 2938 2094 
Q 2938 2591 2744 2837 
Q 2550 3084 2163 3084 
Q 1697 3084 1428 2787 
Q 1159 2491 1159 1978 
L 1159 0 
L 581 0 
L 581 3500 
L 1159 3500 
L 1159 2956 
Q 1366 3272 1645 3428 
Q 1925 3584 2291 3584 
Q 2894 3584 3203 3211 
Q 3513 2838 3513 2113 
z
" transform="scale(0.015625)"/>
       <path id="DejaVuSans-74" d="M 1172 4494 
L 1172 3500 
L 2356 3500 
L 2356 3053 
L 1172 3053 
L 1172 1153 
Q 1172 725 1289 603 
Q 1406 481 1766 481 
L 2356 481 
L 2356 0 
L 1766 0 
Q 1100 0 847 248 
Q 594 497 594 1153 
L 594 3053 
L 172 3053 
L 172 3500 
L 594 3500 
L 594 4494 
L 1172 4494 
z
" transform="scale(0.015625)"/>
      </defs>
      <use xlink:href="#DejaVuSans-43"/>
      <use xlink:href="#DejaVuSans-6f" x="69.824219"/>
      <use xlink:href="#DejaVuSans-75" x="131.005859"/>
      <use xlink:href="#DejaVuSans-6e" x="194.384766"/>
      <use xlink:href="#DejaVuSans-74" x="257.763672"/>
     </g>
    </g>
   </g>
   <g id="matplotlib.axis_2">
    <g id="ytick_1">
     <g id="line2d_19">
      <defs>
       <path id="m6555aed27f" d="M 0 0 
L -3.5 0 
" style="stroke: #000000; stroke-width: 0.8"/>
      </defs>
      <g>
       <use xlink:href="#m6555aed27f" x="52.234615" y="371.569458" style="stroke: #000000; stroke-width: 0.8"/>
      </g>
     </g>
     <g id="text_11">
      <!-- ecall -->
      <g transform="translate(21.898677 375.368676) scale(0.1 -0.1)">
       <defs>
        <path id="DejaVuSans-65" d="M 3597 1894 
L 3597 1613 
L 953 1613 
Q 991 1019 1311 708 
Q 1631 397 2203 397 
Q 2534 397 2845 478 
Q 3156 559 3463 722 
L 3463 178 
Q 3153 47 2828 -22 
Q 2503 -91 2169 -91 
Q 1331 -91 842 396 
Q 353 884 353 1716 
Q 353 2575 817 3079 
Q 1281 3584 2069 3584 
Q 2775 3584 3186 3129 
Q 3597 2675 3597 1894 
z
M 3022 2063 
Q 3016 2534 2758 2815 
Q 2500 3097 2075 3097 
Q 1594 3097 1305 2825 
Q 1016 2553 972 2059 
L 3022 2063 
z
" transform="scale(0.015625)"/>
        <path id="DejaVuSans-63" d="M 3122 3366 
L 3122 2828 
Q 2878 2963 2633 3030 
Q 2388 3097 2138 3097 
Q 1578 3097 1268 2742 
Q 959 2388 959 1747 
Q 959 1106 1268 751 
Q 1578 397 2138 397 
Q 2388 397 2633 464 
Q 2878 531 3122 666 
L 3122 134 
Q 2881 22 2623 -34 
Q 2366 -91 2075 -91 
Q 1284 -91 818 406 
Q 353 903 353 1747 
Q 353 2603 823 3093 
Q 1294 3584 2113 3584 
Q 2378 3584 2631 3529 
Q 2884 3475 3122 3366 
z
" transform="scale(0.015625)"/>
        <path id="DejaVuSans-61" d="M 2194 1759 
Q 1497 1759 1228 1600 
Q 959 1441 959 1056 
Q 959 750 1161 570 
Q 1363 391 1709 391 
Q 2188 391 2477 730 
Q 2766 1069 2766 1631 
L 2766 1759 
L 2194 1759 
z
M 3341 1997 
L 3341 0 
L 2766 0 
L 2766 531 
Q 2569 213 2275 61 
Q 1981 -91 1556 -91 
Q 1019 -91 701 211 
Q 384 513 384 1019 
Q 384 1609 779 1909 
Q 1175 2209 1959 2209 
L 2766 2209 
L 2766 2266 
Q 2766 2663 2505 2880 
Q 2244 3097 1772 3097 
Q 1472 3097 1187 3025 
Q 903 2953 641 2809 
L 641 3341 
Q 956 3463 1253 3523 
Q 1550 3584 1831 3584 
Q 2591 3584 2966 3190 
Q 3341 2797 3341 1997 
z
" transform="scale(0.015625)"/>
        <path id="DejaVuSans-6c" d="M 603 4863 
L 1178 4863 
L 1178 0 
L 603 0 
L 603 4863 
z
" transform="scale(0.015625)"/>
       </defs>
       <use xlink:href="#DejaVuSans-65"/>
       <use xlink:href="#DejaVuSans-63" x="61.523438"/>
       <use xlink:href="#DejaVuSans-61" x="116.503906"/>
       <use xlink:href="#DejaVuSans-6c" x="177.783203"/>
       <use xlink:href="#DejaVuSans-6c" x="205.566406"/>
      </g>
     </g>
    </g>
    <g id="ytick_2">
     <g id="line2d_20">
      <g>
       <use xlink:href="#m6555aed27f" x="52.234615" y="352.598621" style="stroke: #000000; stroke-width: 0.8"/>
      </g>
     </g>
     <g id="text_12">
      <!-- csrrw -->
      <g transform="translate(18.301802 356.397839) scale(0.1 -0.1)">
       <defs>
        <path id="DejaVuSans-73" d="M 2834 3397 
L 2834 2853 
Q 2591 2978 2328 3040 
Q 2066 3103 1784 3103 
Q 1356 3103 1142 2972 
Q 928 2841 928 2578 
Q 928 2378 1081 2264 
Q 1234 2150 1697 2047 
L 1894 2003 
Q 2506 1872 2764 1633 
Q 3022 1394 3022 966 
Q 3022 478 2636 193 
Q 2250 -91 1575 -91 
Q 1294 -91 989 -36 
Q 684 19 347 128 
L 347 722 
Q 666 556 975 473 
Q 1284 391 1588 391 
Q 1994 391 2212 530 
Q 2431 669 2431 922 
Q 2431 1156 2273 1281 
Q 2116 1406 1581 1522 
L 1381 1569 
Q 847 1681 609 1914 
Q 372 2147 372 2553 
Q 372 3047 722 3315 
Q 1072 3584 1716 3584 
Q 2034 3584 2315 3537 
Q 2597 3491 2834 3397 
z
" transform="scale(0.015625)"/>
        <path id="DejaVuSans-72" d="M 2631 2963 
Q 2534 3019 2420 3045 
Q 2306 3072 2169 3072 
Q 1681 3072 1420 2755 
Q 1159 2438 1159 1844 
L 1159 0 
L 581 0 
L 581 3500 
L 1159 3500 
L 1159 2956 
Q 1341 3275 1631 3429 
Q 1922 3584 2338 3584 
Q 2397 3584 2469 3576 
Q 2541 3569 2628 3553 
L 2631 2963 
z
" transform="scale(0.015625)"/>
        <path id="DejaVuSans-77" d="M 269 3500 
L 844 3500 
L 1563 769 
L 2278 3500 
L 2956 3500 
L 3675 769 
L 4391 3500 
L 4966 3500 
L 4050 0 
L 3372 0 
L 2619 2869 
L 1863 0 
L 1184 0 
L 269 3500 
z
" transform="scale(0.015625)"/>
       </defs>
       <use xlink:href="#DejaVuSans-63"/>
       <use xlink:href="#DejaVuSans-73" x="54.980469"/>
       <use xlink:href="#DejaVuSans-72" x="107.080078"/>
       <use xlink:href="#DejaVuSans-72" x="146.443359"/>
       <use xlink:href="#DejaVuSans-77" x="187.556641"/>
      </g>
     </g>
    </g>
    <g id="ytick_3">
     <g id="line2d_21">
      <g>
       <use xlink:href="#m6555aed27f" x="52.234615" y="333.627784" style="stroke: #000000; stroke-width: 0.8"/>
      </g>
     </g>
     <g id="text_13">
      <!-- nop -->
      <g transform="translate(26.429927 337.427002) scale(0.1 -0.1)">
       <defs>
        <path id="DejaVuSans-70" d="M 1159 525 
L 1159 -1331 
L 581 -1331 
L 581 3500 
L 1159 3500 
L 1159 2969 
Q 1341 3281 1617 3432 
Q 1894 3584 2278 3584 
Q 2916 3584 3314 3078 
Q 3713 2572 3713 1747 
Q 3713 922 3314 415 
Q 2916 -91 2278 -91 
Q 1894 -91 1617 61 
Q 1341 213 1159 525 
z
M 3116 1747 
Q 3116 2381 2855 2742 
Q 2594 3103 2138 3103 
Q 1681 3103 1420 2742 
Q 1159 2381 1159 1747 
Q 1159 1113 1420 752 
Q 1681 391 2138 391 
Q 2594 391 2855 752 
Q 3116 1113 3116 1747 
z
" transform="scale(0.015625)"/>
       </defs>
       <use xlink:href="#DejaVuSans-6e"/>
       <use xlink:href="#DejaVuSans-6f" x="63.378906"/>
       <use xlink:href="#DejaVuSans-70" x="124.560547"/>
      </g>
     </g>
    </g>
    <g id="ytick_4">
     <g id="line2d_22">
      <g>
       <use xlink:href="#m6555aed27f" x="52.234615" y="314.656947" style="stroke: #000000; stroke-width: 0.8"/>
      </g>
     </g>
     <g id="text_14">
      <!-- sb -->
      <g transform="translate(33.676802 318.456165) scale(0.1 -0.1)">
       <defs>
        <path id="DejaVuSans-62" d="M 3116 1747 
Q 3116 2381 2855 2742 
Q 2594 3103 2138 3103 
Q 1681 3103 1420 2742 
Q 1159 2381 1159 1747 
Q 1159 1113 1420 752 
Q 1681 391 2138 391 
Q 2594 391 2855 752 
Q 3116 1113 3116 1747 
z
M 1159 2969 
Q 1341 3281 1617 3432 
Q 1894 3584 2278 3584 
Q 2916 3584 3314 3078 
Q 3713 2572 3713 1747 
Q 3713 922 3314 415 
Q 2916 -91 2278 -91 
Q 1894 -91 1617 61 
Q 1341 213 1159 525 
L 1159 0 
L 581 0 
L 581 4863 
L 1159 4863 
L 1159 2969 
z
" transform="scale(0.015625)"/>
       </defs>
       <use xlink:href="#DejaVuSans-73"/>
       <use xlink:href="#DejaVuSans-62" x="52.099609"/>
      </g>
     </g>
    </g>
    <g id="ytick_5">
     <g id="line2d_23">
      <g>
       <use xlink:href="#m6555aed27f" x="52.234615" y="295.68611" style="stroke: #000000; stroke-width: 0.8"/>
      </g>
     </g>
     <g id="text_15">
      <!-- bgeu -->
      <g transform="translate(20.047115 299.485328) scale(0.1 -0.1)">
       <defs>
        <path id="DejaVuSans-67" d="M 2906 1791 
Q 2906 2416 2648 2759 
Q 2391 3103 1925 3103 
Q 1463 3103 1205 2759 
Q 947 2416 947 1791 
Q 947 1169 1205 825 
Q 1463 481 1925 481 
Q 2391 481 2648 825 
Q 2906 1169 2906 1791 
z
M 3481 434 
Q 3481 -459 3084 -895 
Q 2688 -1331 1869 -1331 
Q 1566 -1331 1297 -1286 
Q 1028 -1241 775 -1147 
L 775 -588 
Q 1028 -725 1275 -790 
Q 1522 -856 1778 -856 
Q 2344 -856 2625 -561 
Q 2906 -266 2906 331 
L 2906 616 
Q 2728 306 2450 153 
Q 2172 0 1784 0 
Q 1141 0 747 490 
Q 353 981 353 1791 
Q 353 2603 747 3093 
Q 1141 3584 1784 3584 
Q 2172 3584 2450 3431 
Q 2728 3278 2906 2969 
L 2906 3500 
L 3481 3500 
L 3481 434 
z
" transform="scale(0.015625)"/>
       </defs>
       <use xlink:href="#DejaVuSans-62"/>
       <use xlink:href="#DejaVuSans-67" x="63.476562"/>
       <use xlink:href="#DejaVuSans-65" x="126.953125"/>
       <use xlink:href="#DejaVuSans-75" x="188.476562"/>
      </g>
     </g>
    </g>
    <g id="ytick_6">
     <g id="line2d_24">
      <g>
       <use xlink:href="#m6555aed27f" x="52.234615" y="276.715273" style="stroke: #000000; stroke-width: 0.8"/>
      </g>
     </g>
     <g id="text_16">
      <!-- auipc -->
      <g transform="translate(18.14399 280.514491) scale(0.1 -0.1)">
       <defs>
        <path id="DejaVuSans-69" d="M 603 3500 
L 1178 3500 
L 1178 0 
L 603 0 
L 603 3500 
z
M 603 4863 
L 1178 4863 
L 1178 4134 
L 603 4134 
L 603 4863 
z
" transform="scale(0.015625)"/>
       </defs>
       <use xlink:href="#DejaVuSans-61"/>
       <use xlink:href="#DejaVuSans-75" x="61.279297"/>
       <use xlink:href="#DejaVuSans-69" x="124.658203"/>
       <use xlink:href="#DejaVuSans-70" x="152.441406"/>
       <use xlink:href="#DejaVuSans-63" x="215.917969"/>
      </g>
     </g>
    </g>
    <g id="ytick_7">
     <g id="line2d_25">
      <g>
       <use xlink:href="#m6555aed27f" x="52.234615" y="257.744436" style="stroke: #000000; stroke-width: 0.8"/>
      </g>
     </g>
     <g id="text_17">
      <!-- jalr -->
      <g transform="translate(29.439302 261.543654) scale(0.1 -0.1)">
       <defs>
        <path id="DejaVuSans-6a" d="M 603 3500 
L 1178 3500 
L 1178 -63 
Q 1178 -731 923 -1031 
Q 669 -1331 103 -1331 
L -116 -1331 
L -116 -844 
L 38 -844 
Q 366 -844 484 -692 
Q 603 -541 603 -63 
L 603 3500 
z
M 603 4863 
L 1178 4863 
L 1178 4134 
L 603 4134 
L 603 4863 
z
" transform="scale(0.015625)"/>
       </defs>
       <use xlink:href="#DejaVuSans-6a"/>
       <use xlink:href="#DejaVuSans-61" x="27.783203"/>
       <use xlink:href="#DejaVuSans-6c" x="89.0625"/>
       <use xlink:href="#DejaVuSans-72" x="116.845703"/>
      </g>
     </g>
    </g>
    <g id="ytick_8">
     <g id="line2d_26">
      <g>
       <use xlink:href="#m6555aed27f" x="52.234615" y="238.773599" style="stroke: #000000; stroke-width: 0.8"/>
      </g>
     </g>
     <g id="text_18">
      <!-- sw -->
      <g transform="translate(31.847115 242.572817) scale(0.1 -0.1)">
       <use xlink:href="#DejaVuSans-73"/>
       <use xlink:href="#DejaVuSans-77" x="52.099609"/>
      </g>
     </g>
    </g>
    <g id="ytick_9">
     <g id="line2d_27">
      <g>
       <use xlink:href="#m6555aed27f" x="52.234615" y="219.802762" style="stroke: #000000; stroke-width: 0.8"/>
      </g>
     </g>
     <g id="text_19">
      <!-- lw -->
      <g transform="translate(34.278365 223.60198) scale(0.1 -0.1)">
       <use xlink:href="#DejaVuSans-6c"/>
       <use xlink:href="#DejaVuSans-77" x="27.783203"/>
      </g>
     </g>
    </g>
    <g id="ytick_10">
     <g id="line2d_28">
      <g>
       <use xlink:href="#m6555aed27f" x="52.234615" y="200.831925" style="stroke: #000000; stroke-width: 0.8"/>
      </g>
     </g>
     <g id="text_20">
      <!-- jal -->
      <g transform="translate(33.55024 204.631143) scale(0.1 -0.1)">
       <use xlink:href="#DejaVuSans-6a"/>
       <use xlink:href="#DejaVuSans-61" x="27.783203"/>
       <use xlink:href="#DejaVuSans-6c" x="89.0625"/>
      </g>
     </g>
    </g>
    <g id="ytick_11">
     <g id="line2d_29">
      <g>
       <use xlink:href="#m6555aed27f" x="52.234615" y="181.861088" style="stroke: #000000; stroke-width: 0.8"/>
      </g>
     </g>
     <g id="text_21">
      <!-- lbu -->
      <g transform="translate(29.770552 185.660306) scale(0.1 -0.1)">
       <use xlink:href="#DejaVuSans-6c"/>
       <use xlink:href="#DejaVuSans-62" x="27.783203"/>
       <use xlink:href="#DejaVuSans-75" x="91.259766"/>
      </g>
     </g>
    </g>
    <g id="ytick_12">
     <g id="line2d_30">
      <g>
       <use xlink:href="#m6555aed27f" x="52.234615" y="162.890251" style="stroke: #000000; stroke-width: 0.8"/>
      </g>
     </g>
     <g id="text_22">
      <!-- add -->
      <g transform="translate(26.409615 166.689469) scale(0.1 -0.1)">
       <defs>
        <path id="DejaVuSans-64" d="M 2906 2969 
L 2906 4863 
L 3481 4863 
L 3481 0 
L 2906 0 
L 2906 525 
Q 2725 213 2448 61 
Q 2172 -91 1784 -91 
Q 1150 -91 751 415 
Q 353 922 353 1747 
Q 353 2572 751 3078 
Q 1150 3584 1784 3584 
Q 2172 3584 2448 3432 
Q 2725 3281 2906 2969 
z
M 947 1747 
Q 947 1113 1208 752 
Q 1469 391 1925 391 
Q 2381 391 2643 752 
Q 2906 1113 2906 1747 
Q 2906 2381 2643 2742 
Q 2381 3103 1925 3103 
Q 1469 3103 1208 2742 
Q 947 2381 947 1747 
z
" transform="scale(0.015625)"/>
       </defs>
       <use xlink:href="#DejaVuSans-61"/>
       <use xlink:href="#DejaVuSans-64" x="61.279297"/>
       <use xlink:href="#DejaVuSans-64" x="124.755859"/>
      </g>
     </g>
    </g>
    <g id="ytick_13">
     <g id="line2d_31">
      <g>
       <use xlink:href="#m6555aed27f" x="52.234615" y="143.919414" style="stroke: #000000; stroke-width: 0.8"/>
      </g>
     </g>
     <g id="text_23">
      <!-- addi -->
      <g transform="translate(23.63149 147.718632) scale(0.1 -0.1)">
       <use xlink:href="#DejaVuSans-61"/>
       <use xlink:href="#DejaVuSans-64" x="61.279297"/>
       <use xlink:href="#DejaVuSans-64" x="124.755859"/>
       <use xlink:href="#DejaVuSans-69" x="188.232422"/>
      </g>
     </g>
    </g>
    <g id="ytick_14">
     <g id="line2d_32">
      <g>
       <use xlink:href="#m6555aed27f" x="52.234615" y="124.948577" style="stroke: #000000; stroke-width: 0.8"/>
      </g>
     </g>
     <g id="text_24">
      <!-- srli -->
      <g transform="translate(30.358052 128.747795) scale(0.1 -0.1)">
       <use xlink:href="#DejaVuSans-73"/>
       <use xlink:href="#DejaVuSans-72" x="52.099609"/>
       <use xlink:href="#DejaVuSans-6c" x="93.212891"/>
       <use xlink:href="#DejaVuSans-69" x="120.996094"/>
      </g>
     </g>
    </g>
    <g id="ytick_15">
     <g id="line2d_33">
      <g>
       <use xlink:href="#m6555aed27f" x="52.234615" y="105.97774" style="stroke: #000000; stroke-width: 0.8"/>
      </g>
     </g>
     <g id="text_25">
      <!-- slli -->
      <g transform="translate(31.690865 109.776958) scale(0.1 -0.1)">
       <use xlink:href="#DejaVuSans-73"/>
       <use xlink:href="#DejaVuSans-6c" x="52.099609"/>
       <use xlink:href="#DejaVuSans-6c" x="79.882812"/>
       <use xlink:href="#DejaVuSans-69" x="107.666016"/>
      </g>
     </g>
    </g>
    <g id="ytick_16">
     <g id="line2d_34">
      <g>
       <use xlink:href="#m6555aed27f" x="52.234615" y="87.006903" style="stroke: #000000; stroke-width: 0.8"/>
      </g>
     </g>
     <g id="text_26">
      <!-- beq -->
      <g transform="translate(26.384615 90.806121) scale(0.1 -0.1)">
       <defs>
        <path id="DejaVuSans-71" d="M 947 1747 
Q 947 1113 1208 752 
Q 1469 391 1925 391 
Q 2381 391 2643 752 
Q 2906 1113 2906 1747 
Q 2906 2381 2643 2742 
Q 2381 3103 1925 3103 
Q 1469 3103 1208 2742 
Q 947 2381 947 1747 
z
M 2906 525 
Q 2725 213 2448 61 
Q 2172 -91 1784 -91 
Q 1150 -91 751 415 
Q 353 922 353 1747 
Q 353 2572 751 3078 
Q 1150 3584 1784 3584 
Q 2172 3584 2448 3432 
Q 2725 3281 2906 2969 
L 2906 3500 
L 3481 3500 
L 3481 -1331 
L 2906 -1331 
L 2906 525 
z
" transform="scale(0.015625)"/>
       </defs>
       <use xlink:href="#DejaVuSans-62"/>
       <use xlink:href="#DejaVuSans-65" x="63.476562"/>
       <use xlink:href="#DejaVuSans-71" x="125"/>
      </g>
     </g>
    </g>
    <g id="ytick_17">
     <g id="line2d_35">
      <g>
       <use xlink:href="#m6555aed27f" x="52.234615" y="68.036066" style="stroke: #000000; stroke-width: 0.8"/>
      </g>
     </g>
     <g id="text_27">
      <!-- andi -->
      <g transform="translate(23.642427 71.835284) scale(0.1 -0.1)">
       <use xlink:href="#DejaVuSans-61"/>
       <use xlink:href="#DejaVuSans-6e" x="61.279297"/>
       <use xlink:href="#DejaVuSans-64" x="124.658203"/>
       <use xlink:href="#DejaVuSans-69" x="188.134766"/>
      </g>
     </g>
    </g>
    <g id="ytick_18">
     <g id="line2d_36">
      <g>
       <use xlink:href="#m6555aed27f" x="52.234615" y="49.065229" style="stroke: #000000; stroke-width: 0.8"/>
      </g>
     </g>
     <g id="text_28">
      <!-- bne -->
      <g transform="translate(26.395552 52.864447) scale(0.1 -0.1)">
       <use xlink:href="#DejaVuSans-62"/>
       <use xlink:href="#DejaVuSans-6e" x="63.476562"/>
       <use xlink:href="#DejaVuSans-65" x="126.855469"/>
      </g>
     </g>
    </g>
   </g>
   <g id="patch_24">
    <path d="M 52.234615 386.249091 
L 52.234615 34.385595 
" style="fill: none; stroke: #000000; stroke-width: 0.8; stroke-linejoin: miter; stroke-linecap: square"/>
   </g>
   <g id="patch_25">
    <path d="M 716.99976 386.249091 
L 716.99976 34.385595 
" style="fill: none; stroke: #000000; stroke-width: 0.8; stroke-linejoin: miter; stroke-linecap: square"/>
   </g>
   <g id="patch_26">
    <path d="M 52.234615 386.249091 
L 716.99976 386.249091 
" style="fill: none; stroke: #000000; stroke-width: 0.8; stroke-linejoin: miter; stroke-linecap: square"/>
   </g>
   <g id="patch_27">
    <path d="M 52.234615 34.385595 
L 716.99976 34.385595 
" style="fill: none; stroke: #000000; stroke-width: 0.8; stroke-linejoin: miter; stroke-linecap: square"/>
   </g>
   <g id="text_29">
    <!-- 1 -->
    <g transform="translate(55.310283 374.328833) scale(0.1 -0.1)">
     <use xlink:href="#DejaVuSans-31"/>
    </g>
   </g>
   <g id="text_30">
    <!-- 1 -->
    <g transform="translate(55.310283 355.357996) scale(0.1 -0.1)">
     <use xlink:href="#DejaVuSans-31"/>
    </g>
   </g>
   <g id="text_31">
    <!-- 5 -->
    <g transform="translate(55.612955 336.387159) scale(0.1 -0.1)">
     <use xlink:href="#DejaVuSans-35"/>
    </g>
   </g>
   <g id="text_32">
    <!-- 64 -->
    <g transform="translate(60.077371 317.416322) scale(0.1 -0.1)">
     <use xlink:href="#DejaVuSans-36"/>
     <use xlink:href="#DejaVuSans-34" x="63.623047"/>
    </g>
   </g>
   <g id="text_33">
    <!-- 65 -->
    <g transform="translate(60.153039 298.445485) scale(0.1 -0.1)">
     <use xlink:href="#DejaVuSans-36"/>
     <use xlink:href="#DejaVuSans-35" x="63.623047"/>
    </g>
   </g>
   <g id="text_34">
    <!-- 67 -->
    <g transform="translate(60.304375 279.474648) scale(0.1 -0.1)">
     <use xlink:href="#DejaVuSans-36"/>
     <use xlink:href="#DejaVuSans-37" x="63.623047"/>
    </g>
   </g>
   <g id="text_35">
    <!-- 1025 -->
    <g transform="translate(132.794382 260.503811) scale(0.1 -0.1)">
     <use xlink:href="#DejaVuSans-31"/>
     <use xlink:href="#DejaVuSans-30" x="63.623047"/>
     <use xlink:href="#DejaVuSans-32" x="127.246094"/>
     <use xlink:href="#DejaVuSans-35" x="190.869141"/>
    </g>
   </g>
   <g id="text_36">
    <!-- 1051 -->
    <g transform="translate(134.761752 241.532974) scale(0.1 -0.1)">
     <use xlink:href="#DejaVuSans-31"/>
     <use xlink:href="#DejaVuSans-30" x="63.623047"/>
     <use xlink:href="#DejaVuSans-35" x="127.246094"/>
     <use xlink:href="#DejaVuSans-31" x="190.869141"/>
    </g>
   </g>
   <g id="text_37">
    <!-- 1065 -->
    <g transform="translate(135.821105 222.562137) scale(0.1 -0.1)">
     <use xlink:href="#DejaVuSans-31"/>
     <use xlink:href="#DejaVuSans-30" x="63.623047"/>
     <use xlink:href="#DejaVuSans-36" x="127.246094"/>
     <use xlink:href="#DejaVuSans-35" x="190.869141"/>
    </g>
   </g>
   <g id="text_38">
    <!-- 1092 -->
    <g transform="translate(137.864143 203.5913) scale(0.1 -0.1)">
     <defs>
      <path id="DejaVuSans-39" d="M 703 97 
L 703 672 
Q 941 559 1184 500 
Q 1428 441 1663 441 
Q 2288 441 2617 861 
Q 2947 1281 2994 2138 
Q 2813 1869 2534 1725 
Q 2256 1581 1919 1581 
Q 1219 1581 811 2004 
Q 403 2428 403 3163 
Q 403 3881 828 4315 
Q 1253 4750 1959 4750 
Q 2769 4750 3195 4129 
Q 3622 3509 3622 2328 
Q 3622 1225 3098 567 
Q 2575 -91 1691 -91 
Q 1453 -91 1209 -44 
Q 966 3 703 97 
z
M 1959 2075 
Q 2384 2075 2632 2365 
Q 2881 2656 2881 3163 
Q 2881 3666 2632 3958 
Q 2384 4250 1959 4250 
Q 1534 4250 1286 3958 
Q 1038 3666 1038 3163 
Q 1038 2656 1286 2365 
Q 1534 2075 1959 2075 
z
" transform="scale(0.015625)"/>
     </defs>
     <use xlink:href="#DejaVuSans-31"/>
     <use xlink:href="#DejaVuSans-30" x="63.623047"/>
     <use xlink:href="#DejaVuSans-39" x="127.246094"/>
     <use xlink:href="#DejaVuSans-32" x="190.869141"/>
    </g>
   </g>
   <g id="text_39">
    <!-- 2048 -->
    <g transform="translate(210.202814 184.620463) scale(0.1 -0.1)">
     <use xlink:href="#DejaVuSans-32"/>
     <use xlink:href="#DejaVuSans-30" x="63.623047"/>
     <use xlink:href="#DejaVuSans-34" x="127.246094"/>
     <use xlink:href="#DejaVuSans-38" x="190.869141"/>
    </g>
   </g>
   <g id="text_40">
    <!-- 5376 -->
    <g transform="translate(462.026137 165.649626) scale(0.1 -0.1)">
     <use xlink:href="#DejaVuSans-35"/>
     <use xlink:href="#DejaVuSans-33" x="63.623047"/>
     <use xlink:href="#DejaVuSans-37" x="127.246094"/>
     <use xlink:href="#DejaVuSans-36" x="190.869141"/>
    </g>
   </g>
   <g id="text_41">
    <!-- 5538 -->
    <g transform="translate(474.284363 146.678789) scale(0.1 -0.1)">
     <use xlink:href="#DejaVuSans-35"/>
     <use xlink:href="#DejaVuSans-35" x="63.623047"/>
     <use xlink:href="#DejaVuSans-33" x="127.246094"/>
     <use xlink:href="#DejaVuSans-38" x="190.869141"/>
    </g>
   </g>
   <g id="text_42">
    <!-- 7168 -->
    <g transform="translate(597.623311 127.707952) scale(0.1 -0.1)">
     <use xlink:href="#DejaVuSans-37"/>
     <use xlink:href="#DejaVuSans-31" x="63.623047"/>
     <use xlink:href="#DejaVuSans-36" x="127.246094"/>
     <use xlink:href="#DejaVuSans-38" x="190.869141"/>
    </g>
   </g>
   <g id="text_43">
    <!-- 7168 -->
    <g transform="translate(597.623311 108.737115) scale(0.1 -0.1)">
     <use xlink:href="#DejaVuSans-37"/>
     <use xlink:href="#DejaVuSans-31" x="63.623047"/>
     <use xlink:href="#DejaVuSans-36" x="127.246094"/>
     <use xlink:href="#DejaVuSans-38" x="190.869141"/>
    </g>
   </g>
   <g id="text_44">
    <!-- 7184 -->
    <g transform="translate(598.834 89.766278) scale(0.1 -0.1)">
     <use xlink:href="#DejaVuSans-37"/>
     <use xlink:href="#DejaVuSans-31" x="63.623047"/>
     <use xlink:href="#DejaVuSans-38" x="127.246094"/>
     <use xlink:href="#DejaVuSans-34" x="190.869141"/>
    </g>
   </g>
   <g id="text_45">
    <!-- 7248 -->
    <g transform="translate(603.676756 70.795441) scale(0.1 -0.1)">
     <use xlink:href="#DejaVuSans-37"/>
     <use xlink:href="#DejaVuSans-32" x="63.623047"/>
     <use xlink:href="#DejaVuSans-34" x="127.246094"/>
     <use xlink:href="#DejaVuSans-38" x="190.869141"/>
    </g>
   </g>
   <g id="text_46">
    <!-- 8288 -->
    <g transform="translate(682.371544 51.824604) scale(0.1 -0.1)">
     <use xlink:href="#DejaVuSans-38"/>
     <use xlink:href="#DejaVuSans-32" x="63.623047"/>
     <use xlink:href="#DejaVuSans-38" x="127.246094"/>
     <use xlink:href="#DejaVuSans-38" x="190.869141"/>
    </g>
   </g>
   <g id="legend_1">
    <g id="patch_28">
     <path d="M 532.060697 381.249091 
L 709.99976 381.249091 
Q 711.99976 381.249091 711.99976 379.249091 
L 711.99976 310.338779 
Q 711.99976 308.338779 709.99976 308.338779 
L 532.060697 308.338779 
Q 530.060697 308.338779 530.060697 310.338779 
L 530.060697 379.249091 
Q 530.060697 381.249091 532.060697 381.249091 
z
" style="fill: #ffffff; opacity: 0.5; stroke: #cccccc; stroke-linejoin: miter"/>
    </g>
    <g id="text_47">
     <!-- Highlighted -->
     <g transform="translate(591.666166 319.937216) scale(0.1 -0.1)">
      <defs>
       <path id="DejaVuSans-48" d="M 628 4666 
L 1259 4666 
L 1259 2753 
L 3553 2753 
L 3553 4666 
L 4184 4666 
L 4184 0 
L 3553 0 
L 3553 2222 
L 1259 2222 
L 1259 0 
L 628 0 
L 628 4666 
z
" transform="scale(0.015625)"/>
       <path id="DejaVuSans-68" d="M 3513 2113 
L 3513 0 
L 2938 0 
L 2938 2094 
Q 2938 2591 2744 2837 
Q 2550 3084 2163 3084 
Q 1697 3084 1428 2787 
Q 1159 2491 1159 1978 
L 1159 0 
L 581 0 
L 581 4863 
L 1159 4863 
L 1159 2956 
Q 1366 3272 1645 3428 
Q 1925 3584 2291 3584 
Q 2894 3584 3203 3211 
Q 3513 2838 3513 2113 
z
" transform="scale(0.015625)"/>
      </defs>
      <use xlink:href="#DejaVuSans-48"/>
      <use xlink:href="#DejaVuSans-69" x="75.195312"/>
      <use xlink:href="#DejaVuSans-67" x="102.978516"/>
      <use xlink:href="#DejaVuSans-68" x="166.455078"/>
      <use xlink:href="#DejaVuSans-6c" x="229.833984"/>
      <use xlink:href="#DejaVuSans-69" x="257.617188"/>
      <use xlink:href="#DejaVuSans-67" x="285.400391"/>
      <use xlink:href="#DejaVuSans-68" x="348.876953"/>
      <use xlink:href="#DejaVuSans-74" x="412.255859"/>
      <use xlink:href="#DejaVuSans-65" x="451.464844"/>
      <use xlink:href="#DejaVuSans-64" x="512.988281"/>
     </g>
     <!-- Instructions -->
     <g transform="translate(591.666166 331.135029) scale(0.1 -0.1)">
      <defs>
       <path id="DejaVuSans-49" d="M 628 4666 
L 1259 4666 
L 1259 0 
L 628 0 
L 628 4666 
z
" transform="scale(0.015625)"/>
      </defs>
      <use xlink:href="#DejaVuSans-49"/>
      <use xlink:href="#DejaVuSans-6e" x="29.492188"/>
      <use xlink:href="#DejaVuSans-73" x="92.871094"/>
      <use xlink:href="#DejaVuSans-74" x="144.970703"/>
      <use xlink:href="#DejaVuSans-72" x="184.179688"/>
      <use xlink:href="#DejaVuSans-75" x="225.292969"/>
      <use xlink:href="#DejaVuSans-63" x="288.671875"/>
      <use xlink:href="#DejaVuSans-74" x="343.652344"/>
      <use xlink:href="#DejaVuSans-69" x="382.861328"/>
      <use xlink:href="#DejaVuSans-6f" x="410.644531"/>
      <use xlink:href="#DejaVuSans-6e" x="471.826172"/>
      <use xlink:href="#DejaVuSans-73" x="535.205078"/>
     </g>
    </g>
    <g id="patch_29">
     <path d="M 534.060697 345.813154 
L 554.060697 345.813154 
L 554.060697 338.813154 
L 534.060697 338.813154 
z
" style="fill: #3eccbb"/>
    </g>
    <g id="text_48">
     <!-- lw, lh, lb, lhu, lbu, sw, sh, sb -->
     <g transform="translate(562.060697 345.813154) scale(0.1 -0.1)">
      <defs>
       <path id="DejaVuSans-2c" d="M 750 794 
L 1409 794 
L 1409 256 
L 897 -744 
L 494 -744 
L 750 256 
L 750 794 
z
" transform="scale(0.015625)"/>
       <path id="DejaVuSans-20" transform="scale(0.015625)"/>
      </defs>
      <use xlink:href="#DejaVuSans-6c"/>
      <use xlink:href="#DejaVuSans-77" x="27.783203"/>
      <use xlink:href="#DejaVuSans-2c" x="109.570312"/>
      <use xlink:href="#DejaVuSans-20" x="141.357422"/>
      <use xlink:href="#DejaVuSans-6c" x="173.144531"/>
      <use xlink:href="#DejaVuSans-68" x="200.927734"/>
      <use xlink:href="#DejaVuSans-2c" x="264.306641"/>
      <use xlink:href="#DejaVuSans-20" x="296.09375"/>
      <use xlink:href="#DejaVuSans-6c" x="327.880859"/>
      <use xlink:href="#DejaVuSans-62" x="355.664062"/>
      <use xlink:href="#DejaVuSans-2c" x="419.140625"/>
      <use xlink:href="#DejaVuSans-20" x="450.927734"/>
      <use xlink:href="#DejaVuSans-6c" x="482.714844"/>
      <use xlink:href="#DejaVuSans-68" x="510.498047"/>
      <use xlink:href="#DejaVuSans-75" x="573.876953"/>
      <use xlink:href="#DejaVuSans-2c" x="637.255859"/>
      <use xlink:href="#DejaVuSans-20" x="669.042969"/>
      <use xlink:href="#DejaVuSans-6c" x="700.830078"/>
      <use xlink:href="#DejaVuSans-62" x="728.613281"/>
      <use xlink:href="#DejaVuSans-75" x="792.089844"/>
      <use xlink:href="#DejaVuSans-2c" x="855.46875"/>
      <use xlink:href="#DejaVuSans-20" x="887.255859"/>
      <use xlink:href="#DejaVuSans-73" x="919.042969"/>
      <use xlink:href="#DejaVuSans-77" x="971.142578"/>
      <use xlink:href="#DejaVuSans-2c" x="1052.929688"/>
      <use xlink:href="#DejaVuSans-20" x="1084.716797"/>
      <use xlink:href="#DejaVuSans-73" x="1116.503906"/>
      <use xlink:href="#DejaVuSans-68" x="1168.603516"/>
      <use xlink:href="#DejaVuSans-2c" x="1231.982422"/>
      <use xlink:href="#DejaVuSans-20" x="1263.769531"/>
      <use xlink:href="#DejaVuSans-73" x="1295.556641"/>
      <use xlink:href="#DejaVuSans-62" x="1347.65625"/>
     </g>
    </g>
    <g id="patch_30">
     <path d="M 534.060697 360.491279 
L 554.060697 360.491279 
L 554.060697 353.491279 
L 534.060697 353.491279 
z
" style="fill: #eed595"/>
    </g>
    <g id="text_49">
     <!-- bne, beq, blt, bge, bgeu, bltu -->
     <g transform="translate(562.060697 360.491279) scale(0.1 -0.1)">
      <use xlink:href="#DejaVuSans-62"/>
      <use xlink:href="#DejaVuSans-6e" x="63.476562"/>
      <use xlink:href="#DejaVuSans-65" x="126.855469"/>
      <use xlink:href="#DejaVuSans-2c" x="188.378906"/>
      <use xlink:href="#DejaVuSans-20" x="220.166016"/>
      <use xlink:href="#DejaVuSans-62" x="251.953125"/>
      <use xlink:href="#DejaVuSans-65" x="315.429688"/>
      <use xlink:href="#DejaVuSans-71" x="376.953125"/>
      <use xlink:href="#DejaVuSans-2c" x="440.429688"/>
      <use xlink:href="#DejaVuSans-20" x="472.216797"/>
      <use xlink:href="#DejaVuSans-62" x="504.003906"/>
      <use xlink:href="#DejaVuSans-6c" x="567.480469"/>
      <use xlink:href="#DejaVuSans-74" x="595.263672"/>
      <use xlink:href="#DejaVuSans-2c" x="634.472656"/>
      <use xlink:href="#DejaVuSans-20" x="666.259766"/>
      <use xlink:href="#DejaVuSans-62" x="698.046875"/>
      <use xlink:href="#DejaVuSans-67" x="761.523438"/>
      <use xlink:href="#DejaVuSans-65" x="825"/>
      <use xlink:href="#DejaVuSans-2c" x="886.523438"/>
      <use xlink:href="#DejaVuSans-20" x="918.310547"/>
      <use xlink:href="#DejaVuSans-62" x="950.097656"/>
      <use xlink:href="#DejaVuSans-67" x="1013.574219"/>
      <use xlink:href="#DejaVuSans-65" x="1077.050781"/>
      <use xlink:href="#DejaVuSans-75" x="1138.574219"/>
      <use xlink:href="#DejaVuSans-2c" x="1201.953125"/>
      <use xlink:href="#DejaVuSans-20" x="1233.740234"/>
      <use xlink:href="#DejaVuSans-62" x="1265.527344"/>
      <use xlink:href="#DejaVuSans-6c" x="1329.003906"/>
      <use xlink:href="#DejaVuSans-74" x="1356.787109"/>
      <use xlink:href="#DejaVuSans-75" x="1395.996094"/>
     </g>
    </g>
    <g id="patch_31">
     <path d="M 534.060697 375.169404 
L 554.060697 375.169404 
L 554.060697 368.169404 
L 534.060697 368.169404 
z
" style="fill: #f4a261"/>
    </g>
    <g id="text_50">
     <!-- jal, jalr -->
     <g transform="translate(562.060697 375.169404) scale(0.1 -0.1)">
      <use xlink:href="#DejaVuSans-6a"/>
      <use xlink:href="#DejaVuSans-61" x="27.783203"/>
      <use xlink:href="#DejaVuSans-6c" x="89.0625"/>
      <use xlink:href="#DejaVuSans-2c" x="116.845703"/>
      <use xlink:href="#DejaVuSans-20" x="148.632812"/>
      <use xlink:href="#DejaVuSans-6a" x="180.419922"/>
      <use xlink:href="#DejaVuSans-61" x="208.203125"/>
      <use xlink:href="#DejaVuSans-6c" x="269.482422"/>
      <use xlink:href="#DejaVuSans-72" x="297.265625"/>
     </g>
    </g>
   </g>
  </g>
  <g id="axes_2">
   <g id="patch_32">
    <path d="M 52.234615 566.64351 
L 716.99976 566.64351 
L 716.99976 422.605821 
L 52.234615 422.605821 
z
" style="fill: #ffffff"/>
   </g>
   <g id="patch_33">
    <path d="M 52.234615 562.566972 
L 52.253873 562.566972 
L 52.253873 546.580547 
L 52.234615 546.580547 
z
" clip-path="url(#p4e6c7399f4)" style="fill: #0077b6"/>
   </g>
   <g id="patch_34">
    <path d="M 52.234615 542.58394 
L 52.253873 542.58394 
L 52.253873 526.597516 
L 52.234615 526.597516 
z
" clip-path="url(#p4e6c7399f4)" style="fill: #0077b6"/>
   </g>
   <g id="patch_35">
    <path d="M 52.234615 522.600909 
L 52.330905 522.600909 
L 52.330905 506.614484 
L 52.234615 506.614484 
z
" clip-path="url(#p4e6c7399f4)" style="fill: #0077b6"/>
   </g>
   <g id="patch_36">
    <path d="M 52.234615 502.617878 
L 93.003811 502.617878 
L 93.003811 486.631453 
L 52.234615 486.631453 
z
" clip-path="url(#p4e6c7399f4)" style="fill: #0077b6"/>
   </g>
   <g id="patch_37">
    <path d="M 52.234615 482.634847 
L 133.65746 482.634847 
L 133.65746 466.648422 
L 52.234615 466.648422 
z
" clip-path="url(#p4e6c7399f4)" style="fill: #0077b6"/>
   </g>
   <g id="patch_38">
    <path d="M 52.234615 462.651816 
L 351.446237 462.651816 
L 351.446237 446.665391 
L 52.234615 446.665391 
z
" clip-path="url(#p4e6c7399f4)" style="fill: #0077b6"/>
   </g>
   <g id="patch_39">
    <path d="M 52.234615 442.668785 
L 679.371544 442.668785 
L 679.371544 426.68236 
L 52.234615 426.68236 
z
" clip-path="url(#p4e6c7399f4)" style="fill: #0077b6"/>
   </g>
   <g id="patch_40">
    <path d="M 52.234615 482.634847 
L 112.184784 482.634847 
L 112.184784 466.648422 
L 52.234615 466.648422 
z
" clip-path="url(#p4e6c7399f4)" style="fill: #00b4d8"/>
   </g>
   <g id="patch_41">
    <path d="M 112.184784 482.634847 
L 133.65746 482.634847 
L 133.65746 466.648422 
L 112.184784 466.648422 
z
" clip-path="url(#p4e6c7399f4)" style="fill: #90e0ef"/>
   </g>
   <g id="matplotlib.axis_3">
    <g id="xtick_10">
     <g id="line2d_37">
      <path d="M 52.234615 566.64351 
L 52.234615 422.605821 
" clip-path="url(#p4e6c7399f4)" style="fill: none; stroke: #b0b0b0; stroke-width: 0.8; stroke-linecap: square"/>
     </g>
     <g id="line2d_38">
      <g>
       <use xlink:href="#m917c30d8fa" x="52.234615" y="566.64351" style="stroke: #000000; stroke-width: 0.8"/>
      </g>
     </g>
     <g id="text_51">
      <!-- 0 -->
      <g transform="translate(49.053365 581.241948) scale(0.1 -0.1)">
       <use xlink:href="#DejaVuSans-30"/>
      </g>
     </g>
    </g>
    <g id="xtick_11">
     <g id="line2d_39">
      <path d="M 148.524639 566.64351 
L 148.524639 422.605821 
" clip-path="url(#p4e6c7399f4)" style="fill: none; stroke: #b0b0b0; stroke-width: 0.8; stroke-linecap: square"/>
     </g>
     <g id="line2d_40">
      <g>
       <use xlink:href="#m917c30d8fa" x="148.524639" y="566.64351" style="stroke: #000000; stroke-width: 0.8"/>
      </g>
     </g>
     <g id="text_52">
      <!-- 5000 -->
      <g transform="translate(135.799639 581.241948) scale(0.1 -0.1)">
       <use xlink:href="#DejaVuSans-35"/>
       <use xlink:href="#DejaVuSans-30" x="63.623047"/>
       <use xlink:href="#DejaVuSans-30" x="127.246094"/>
       <use xlink:href="#DejaVuSans-30" x="190.869141"/>
      </g>
     </g>
    </g>
    <g id="xtick_12">
     <g id="line2d_41">
      <path d="M 244.814664 566.64351 
L 244.814664 422.605821 
" clip-path="url(#p4e6c7399f4)" style="fill: none; stroke: #b0b0b0; stroke-width: 0.8; stroke-linecap: square"/>
     </g>
     <g id="line2d_42">
      <g>
       <use xlink:href="#m917c30d8fa" x="244.814664" y="566.64351" style="stroke: #000000; stroke-width: 0.8"/>
      </g>
     </g>
     <g id="text_53">
      <!-- 10000 -->
      <g transform="translate(228.908414 581.241948) scale(0.1 -0.1)">
       <use xlink:href="#DejaVuSans-31"/>
       <use xlink:href="#DejaVuSans-30" x="63.623047"/>
       <use xlink:href="#DejaVuSans-30" x="127.246094"/>
       <use xlink:href="#DejaVuSans-30" x="190.869141"/>
       <use xlink:href="#DejaVuSans-30" x="254.492188"/>
      </g>
     </g>
    </g>
    <g id="xtick_13">
     <g id="line2d_43">
      <path d="M 341.104688 566.64351 
L 341.104688 422.605821 
" clip-path="url(#p4e6c7399f4)" style="fill: none; stroke: #b0b0b0; stroke-width: 0.8; stroke-linecap: square"/>
     </g>
     <g id="line2d_44">
      <g>
       <use xlink:href="#m917c30d8fa" x="341.104688" y="566.64351" style="stroke: #000000; stroke-width: 0.8"/>
      </g>
     </g>
     <g id="text_54">
      <!-- 15000 -->
      <g transform="translate(325.198438 581.241948) scale(0.1 -0.1)">
       <use xlink:href="#DejaVuSans-31"/>
       <use xlink:href="#DejaVuSans-35" x="63.623047"/>
       <use xlink:href="#DejaVuSans-30" x="127.246094"/>
       <use xlink:href="#DejaVuSans-30" x="190.869141"/>
       <use xlink:href="#DejaVuSans-30" x="254.492188"/>
      </g>
     </g>
    </g>
    <g id="xtick_14">
     <g id="line2d_45">
      <path d="M 437.394713 566.64351 
L 437.394713 422.605821 
" clip-path="url(#p4e6c7399f4)" style="fill: none; stroke: #b0b0b0; stroke-width: 0.8; stroke-linecap: square"/>
     </g>
     <g id="line2d_46">
      <g>
       <use xlink:href="#m917c30d8fa" x="437.394713" y="566.64351" style="stroke: #000000; stroke-width: 0.8"/>
      </g>
     </g>
     <g id="text_55">
      <!-- 20000 -->
      <g transform="translate(421.488463 581.241948) scale(0.1 -0.1)">
       <use xlink:href="#DejaVuSans-32"/>
       <use xlink:href="#DejaVuSans-30" x="63.623047"/>
       <use xlink:href="#DejaVuSans-30" x="127.246094"/>
       <use xlink:href="#DejaVuSans-30" x="190.869141"/>
       <use xlink:href="#DejaVuSans-30" x="254.492188"/>
      </g>
     </g>
    </g>
    <g id="xtick_15">
     <g id="line2d_47">
      <path d="M 533.684737 566.64351 
L 533.684737 422.605821 
" clip-path="url(#p4e6c7399f4)" style="fill: none; stroke: #b0b0b0; stroke-width: 0.8; stroke-linecap: square"/>
     </g>
     <g id="line2d_48">
      <g>
       <use xlink:href="#m917c30d8fa" x="533.684737" y="566.64351" style="stroke: #000000; stroke-width: 0.8"/>
      </g>
     </g>
     <g id="text_56">
      <!-- 25000 -->
      <g transform="translate(517.778487 581.241948) scale(0.1 -0.1)">
       <use xlink:href="#DejaVuSans-32"/>
       <use xlink:href="#DejaVuSans-35" x="63.623047"/>
       <use xlink:href="#DejaVuSans-30" x="127.246094"/>
       <use xlink:href="#DejaVuSans-30" x="190.869141"/>
       <use xlink:href="#DejaVuSans-30" x="254.492188"/>
      </g>
     </g>
    </g>
    <g id="xtick_16">
     <g id="line2d_49">
      <path d="M 629.974762 566.64351 
L 629.974762 422.605821 
" clip-path="url(#p4e6c7399f4)" style="fill: none; stroke: #b0b0b0; stroke-width: 0.8; stroke-linecap: square"/>
     </g>
     <g id="line2d_50">
      <g>
       <use xlink:href="#m917c30d8fa" x="629.974762" y="566.64351" style="stroke: #000000; stroke-width: 0.8"/>
      </g>
     </g>
     <g id="text_57">
      <!-- 30000 -->
      <g transform="translate(614.068512 581.241948) scale(0.1 -0.1)">
       <use xlink:href="#DejaVuSans-33"/>
       <use xlink:href="#DejaVuSans-30" x="63.623047"/>
       <use xlink:href="#DejaVuSans-30" x="127.246094"/>
       <use xlink:href="#DejaVuSans-30" x="190.869141"/>
       <use xlink:href="#DejaVuSans-30" x="254.492188"/>
      </g>
     </g>
    </g>
    <g id="text_58">
     <!-- Count -->
     <g transform="translate(369.76875 594.920072) scale(0.1 -0.1)">
      <use xlink:href="#DejaVuSans-43"/>
      <use xlink:href="#DejaVuSans-6f" x="69.824219"/>
      <use xlink:href="#DejaVuSans-75" x="131.005859"/>
      <use xlink:href="#DejaVuSans-6e" x="194.384766"/>
      <use xlink:href="#DejaVuSans-74" x="257.763672"/>
     </g>
    </g>
   </g>
   <g id="matplotlib.axis_4">
    <g id="ytick_19">
     <g id="line2d_51">
      <g>
       <use xlink:href="#m6555aed27f" x="52.234615" y="554.573759" style="stroke: #000000; stroke-width: 0.8"/>
      </g>
     </g>
     <g id="text_59">
      <!-- ENV -->
      <g transform="translate(24.59399 558.372978) scale(0.1 -0.1)">
       <defs>
        <path id="DejaVuSans-45" d="M 628 4666 
L 3578 4666 
L 3578 4134 
L 1259 4134 
L 1259 2753 
L 3481 2753 
L 3481 2222 
L 1259 2222 
L 1259 531 
L 3634 531 
L 3634 0 
L 628 0 
L 628 4666 
z
" transform="scale(0.015625)"/>
        <path id="DejaVuSans-4e" d="M 628 4666 
L 1478 4666 
L 3547 763 
L 3547 4666 
L 4159 4666 
L 4159 0 
L 3309 0 
L 1241 3903 
L 1241 0 
L 628 0 
L 628 4666 
z
" transform="scale(0.015625)"/>
        <path id="DejaVuSans-56" d="M 1831 0 
L 50 4666 
L 709 4666 
L 2188 738 
L 3669 4666 
L 4325 4666 
L 2547 0 
L 1831 0 
z
" transform="scale(0.015625)"/>
       </defs>
       <use xlink:href="#DejaVuSans-45"/>
       <use xlink:href="#DejaVuSans-4e" x="63.183594"/>
       <use xlink:href="#DejaVuSans-56" x="137.988281"/>
      </g>
     </g>
    </g>
    <g id="ytick_20">
     <g id="line2d_52">
      <g>
       <use xlink:href="#m6555aed27f" x="52.234615" y="534.590728" style="stroke: #000000; stroke-width: 0.8"/>
      </g>
     </g>
     <g id="text_60">
      <!-- CSR -->
      <g transform="translate(24.954927 538.389947) scale(0.1 -0.1)">
       <defs>
        <path id="DejaVuSans-53" d="M 3425 4513 
L 3425 3897 
Q 3066 4069 2747 4153 
Q 2428 4238 2131 4238 
Q 1616 4238 1336 4038 
Q 1056 3838 1056 3469 
Q 1056 3159 1242 3001 
Q 1428 2844 1947 2747 
L 2328 2669 
Q 3034 2534 3370 2195 
Q 3706 1856 3706 1288 
Q 3706 609 3251 259 
Q 2797 -91 1919 -91 
Q 1588 -91 1214 -16 
Q 841 59 441 206 
L 441 856 
Q 825 641 1194 531 
Q 1563 422 1919 422 
Q 2459 422 2753 634 
Q 3047 847 3047 1241 
Q 3047 1584 2836 1778 
Q 2625 1972 2144 2069 
L 1759 2144 
Q 1053 2284 737 2584 
Q 422 2884 422 3419 
Q 422 4038 858 4394 
Q 1294 4750 2059 4750 
Q 2388 4750 2728 4690 
Q 3069 4631 3425 4513 
z
" transform="scale(0.015625)"/>
        <path id="DejaVuSans-52" d="M 2841 2188 
Q 3044 2119 3236 1894 
Q 3428 1669 3622 1275 
L 4263 0 
L 3584 0 
L 2988 1197 
Q 2756 1666 2539 1819 
Q 2322 1972 1947 1972 
L 1259 1972 
L 1259 0 
L 628 0 
L 628 4666 
L 2053 4666 
Q 2853 4666 3247 4331 
Q 3641 3997 3641 3322 
Q 3641 2881 3436 2590 
Q 3231 2300 2841 2188 
z
M 1259 4147 
L 1259 2491 
L 2053 2491 
Q 2509 2491 2742 2702 
Q 2975 2913 2975 3322 
Q 2975 3731 2742 3939 
Q 2509 4147 2053 4147 
L 1259 4147 
z
" transform="scale(0.015625)"/>
       </defs>
       <use xlink:href="#DejaVuSans-43"/>
       <use xlink:href="#DejaVuSans-53" x="69.824219"/>
       <use xlink:href="#DejaVuSans-52" x="133.300781"/>
      </g>
     </g>
    </g>
    <g id="ytick_21">
     <g id="line2d_53">
      <g>
       <use xlink:href="#m6555aed27f" x="52.234615" y="514.607697" style="stroke: #000000; stroke-width: 0.8"/>
      </g>
     </g>
     <g id="text_61">
      <!-- NOP -->
      <g transform="translate(23.851802 518.406916) scale(0.1 -0.1)">
       <defs>
        <path id="DejaVuSans-4f" d="M 2522 4238 
Q 1834 4238 1429 3725 
Q 1025 3213 1025 2328 
Q 1025 1447 1429 934 
Q 1834 422 2522 422 
Q 3209 422 3611 934 
Q 4013 1447 4013 2328 
Q 4013 3213 3611 3725 
Q 3209 4238 2522 4238 
z
M 2522 4750 
Q 3503 4750 4090 4092 
Q 4678 3434 4678 2328 
Q 4678 1225 4090 567 
Q 3503 -91 2522 -91 
Q 1538 -91 948 565 
Q 359 1222 359 2328 
Q 359 3434 948 4092 
Q 1538 4750 2522 4750 
z
" transform="scale(0.015625)"/>
        <path id="DejaVuSans-50" d="M 1259 4147 
L 1259 2394 
L 2053 2394 
Q 2494 2394 2734 2622 
Q 2975 2850 2975 3272 
Q 2975 3691 2734 3919 
Q 2494 4147 2053 4147 
L 1259 4147 
z
M 628 4666 
L 2053 4666 
Q 2838 4666 3239 4311 
Q 3641 3956 3641 3272 
Q 3641 2581 3239 2228 
Q 2838 1875 2053 1875 
L 1259 1875 
L 1259 0 
L 628 0 
L 628 4666 
z
" transform="scale(0.015625)"/>
       </defs>
       <use xlink:href="#DejaVuSans-4e"/>
       <use xlink:href="#DejaVuSans-4f" x="74.804688"/>
       <use xlink:href="#DejaVuSans-50" x="153.515625"/>
      </g>
     </g>
    </g>
    <g id="ytick_22">
     <g id="line2d_54">
      <g>
       <use xlink:href="#m6555aed27f" x="52.234615" y="494.624666" style="stroke: #000000; stroke-width: 0.8"/>
      </g>
     </g>
     <g id="text_62">
      <!-- JUMP -->
      <g transform="translate(20.308052 498.423884) scale(0.1 -0.1)">
       <defs>
        <path id="DejaVuSans-4a" d="M 628 4666 
L 1259 4666 
L 1259 325 
Q 1259 -519 939 -900 
Q 619 -1281 -91 -1281 
L -331 -1281 
L -331 -750 
L -134 -750 
Q 284 -750 456 -515 
Q 628 -281 628 325 
L 628 4666 
z
" transform="scale(0.015625)"/>
        <path id="DejaVuSans-55" d="M 556 4666 
L 1191 4666 
L 1191 1831 
Q 1191 1081 1462 751 
Q 1734 422 2344 422 
Q 2950 422 3222 751 
Q 3494 1081 3494 1831 
L 3494 4666 
L 4128 4666 
L 4128 1753 
Q 4128 841 3676 375 
Q 3225 -91 2344 -91 
Q 1459 -91 1007 375 
Q 556 841 556 1753 
L 556 4666 
z
" transform="scale(0.015625)"/>
        <path id="DejaVuSans-4d" d="M 628 4666 
L 1569 4666 
L 2759 1491 
L 3956 4666 
L 4897 4666 
L 4897 0 
L 4281 0 
L 4281 4097 
L 3078 897 
L 2444 897 
L 1241 4097 
L 1241 0 
L 628 0 
L 628 4666 
z
" transform="scale(0.015625)"/>
       </defs>
       <use xlink:href="#DejaVuSans-4a"/>
       <use xlink:href="#DejaVuSans-55" x="29.492188"/>
       <use xlink:href="#DejaVuSans-4d" x="102.685547"/>
       <use xlink:href="#DejaVuSans-50" x="188.964844"/>
      </g>
     </g>
    </g>
    <g id="ytick_23">
     <g id="line2d_55">
      <g>
       <use xlink:href="#m6555aed27f" x="52.234615" y="474.641635" style="stroke: #000000; stroke-width: 0.8"/>
      </g>
     </g>
     <g id="text_63">
      <!-- MEM -->
      <g transform="translate(21.659615 478.440853) scale(0.1 -0.1)">
       <use xlink:href="#DejaVuSans-4d"/>
       <use xlink:href="#DejaVuSans-45" x="86.279297"/>
       <use xlink:href="#DejaVuSans-4d" x="149.462891"/>
      </g>
     </g>
    </g>
    <g id="ytick_24">
     <g id="line2d_56">
      <g>
       <use xlink:href="#m6555aed27f" x="52.234615" y="454.658603" style="stroke: #000000; stroke-width: 0.8"/>
      </g>
     </g>
     <g id="text_64">
      <!-- BRANCH -->
      <g transform="translate(3.00024 458.457822) scale(0.1 -0.1)">
       <defs>
        <path id="DejaVuSans-42" d="M 1259 2228 
L 1259 519 
L 2272 519 
Q 2781 519 3026 730 
Q 3272 941 3272 1375 
Q 3272 1813 3026 2020 
Q 2781 2228 2272 2228 
L 1259 2228 
z
M 1259 4147 
L 1259 2741 
L 2194 2741 
Q 2656 2741 2882 2914 
Q 3109 3088 3109 3444 
Q 3109 3797 2882 3972 
Q 2656 4147 2194 4147 
L 1259 4147 
z
M 628 4666 
L 2241 4666 
Q 2963 4666 3353 4366 
Q 3744 4066 3744 3513 
Q 3744 3084 3544 2831 
Q 3344 2578 2956 2516 
Q 3422 2416 3680 2098 
Q 3938 1781 3938 1306 
Q 3938 681 3513 340 
Q 3088 0 2303 0 
L 628 0 
L 628 4666 
z
" transform="scale(0.015625)"/>
        <path id="DejaVuSans-41" d="M 2188 4044 
L 1331 1722 
L 3047 1722 
L 2188 4044 
z
M 1831 4666 
L 2547 4666 
L 4325 0 
L 3669 0 
L 3244 1197 
L 1141 1197 
L 716 0 
L 50 0 
L 1831 4666 
z
" transform="scale(0.015625)"/>
       </defs>
       <use xlink:href="#DejaVuSans-42"/>
       <use xlink:href="#DejaVuSans-52" x="68.603516"/>
       <use xlink:href="#DejaVuSans-41" x="134.085938"/>
       <use xlink:href="#DejaVuSans-4e" x="202.494141"/>
       <use xlink:href="#DejaVuSans-43" x="277.298828"/>
       <use xlink:href="#DejaVuSans-48" x="347.123047"/>
      </g>
     </g>
    </g>
    <g id="ytick_25">
     <g id="line2d_57">
      <g>
       <use xlink:href="#m6555aed27f" x="52.234615" y="434.675572" style="stroke: #000000; stroke-width: 0.8"/>
      </g>
     </g>
     <g id="text_65">
      <!-- ARITH -->
      <g transform="translate(14.867427 438.474791) scale(0.1 -0.1)">
       <defs>
        <path id="DejaVuSans-54" d="M -19 4666 
L 3928 4666 
L 3928 4134 
L 2272 4134 
L 2272 0 
L 1638 0 
L 1638 4134 
L -19 4134 
L -19 4666 
z
" transform="scale(0.015625)"/>
       </defs>
       <use xlink:href="#DejaVuSans-41"/>
       <use xlink:href="#DejaVuSans-52" x="68.408203"/>
       <use xlink:href="#DejaVuSans-49" x="137.890625"/>
       <use xlink:href="#DejaVuSans-54" x="167.382812"/>
       <use xlink:href="#DejaVuSans-48" x="228.466797"/>
      </g>
     </g>
    </g>
   </g>
   <g id="patch_42">
    <path d="M 52.234615 566.64351 
L 52.234615 422.605821 
" style="fill: none; stroke: #000000; stroke-width: 0.8; stroke-linejoin: miter; stroke-linecap: square"/>
   </g>
   <g id="patch_43">
    <path d="M 716.99976 566.64351 
L 716.99976 422.605821 
" style="fill: none; stroke: #000000; stroke-width: 0.8; stroke-linejoin: miter; stroke-linecap: square"/>
   </g>
   <g id="patch_44">
    <path d="M 52.234615 566.64351 
L 716.99976 566.64351 
" style="fill: none; stroke: #000000; stroke-width: 0.8; stroke-linejoin: miter; stroke-linecap: square"/>
   </g>
   <g id="patch_45">
    <path d="M 52.234615 422.605821 
L 716.99976 422.605821 
" style="fill: none; stroke: #000000; stroke-width: 0.8; stroke-linejoin: miter; stroke-linecap: square"/>
   </g>
   <g id="text_66">
    <!-- 1 -->
    <g transform="translate(55.253873 557.333134) scale(0.1 -0.1)">
     <use xlink:href="#DejaVuSans-31"/>
    </g>
   </g>
   <g id="text_67">
    <!-- 1 -->
    <g transform="translate(55.253873 537.350103) scale(0.1 -0.1)">
     <use xlink:href="#DejaVuSans-31"/>
    </g>
   </g>
   <g id="text_68">
    <!-- 5 -->
    <g transform="translate(55.330905 517.367072) scale(0.1 -0.1)">
     <use xlink:href="#DejaVuSans-35"/>
    </g>
   </g>
   <g id="text_69">
    <!-- 2117 -->
    <g transform="translate(96.003811 497.384041) scale(0.1 -0.1)">
     <use xlink:href="#DejaVuSans-32"/>
     <use xlink:href="#DejaVuSans-31" x="63.623047"/>
     <use xlink:href="#DejaVuSans-31" x="127.246094"/>
     <use xlink:href="#DejaVuSans-37" x="190.869141"/>
    </g>
   </g>
   <g id="text_70">
    <!-- 4228 -->
    <g transform="translate(136.65746 477.40101) scale(0.1 -0.1)">
     <use xlink:href="#DejaVuSans-34"/>
     <use xlink:href="#DejaVuSans-32" x="63.623047"/>
     <use xlink:href="#DejaVuSans-32" x="127.246094"/>
     <use xlink:href="#DejaVuSans-38" x="190.869141"/>
    </g>
   </g>
   <g id="text_71">
    <!-- 15537 -->
    <g transform="translate(354.446237 457.417978) scale(0.1 -0.1)">
     <use xlink:href="#DejaVuSans-31"/>
     <use xlink:href="#DejaVuSans-35" x="63.623047"/>
     <use xlink:href="#DejaVuSans-35" x="127.246094"/>
     <use xlink:href="#DejaVuSans-33" x="190.869141"/>
     <use xlink:href="#DejaVuSans-37" x="254.492188"/>
    </g>
   </g>
   <g id="text_72">
    <!-- 32565 -->
    <g transform="translate(682.371544 437.434947) scale(0.1 -0.1)">
     <use xlink:href="#DejaVuSans-33"/>
     <use xlink:href="#DejaVuSans-32" x="63.623047"/>
     <use xlink:href="#DejaVuSans-35" x="127.246094"/>
     <use xlink:href="#DejaVuSans-36" x="190.869141"/>
     <use xlink:href="#DejaVuSans-35" x="254.492188"/>
    </g>
   </g>
   <g id="text_73">
    <!-- 3113 -->
    <g transform="translate(73.3022 476.573197) scale(0.07 -0.07)">
     <use xlink:href="#DejaVuSans-33"/>
     <use xlink:href="#DejaVuSans-31" x="63.623047"/>
     <use xlink:href="#DejaVuSans-31" x="127.246094"/>
     <use xlink:href="#DejaVuSans-33" x="190.869141"/>
    </g>
   </g>
   <g id="text_74">
    <!-- 1115 -->
    <g transform="translate(114.013622 476.573197) scale(0.07 -0.07)">
     <use xlink:href="#DejaVuSans-31"/>
     <use xlink:href="#DejaVuSans-31" x="63.623047"/>
     <use xlink:href="#DejaVuSans-31" x="127.246094"/>
     <use xlink:href="#DejaVuSans-35" x="190.869141"/>
    </g>
   </g>
   <g id="legend_2">
    <g id="patch_46">
     <path d="M 651.573197 561.64351 
L 709.99976 561.64351 
Q 711.99976 561.64351 711.99976 559.64351 
L 711.99976 531.28726 
Q 711.99976 529.28726 709.99976 529.28726 
L 651.573197 529.28726 
Q 649.573197 529.28726 649.573197 531.28726 
L 649.573197 559.64351 
Q 649.573197 561.64351 651.573197 561.64351 
z
" style="fill: #ffffff; opacity: 0.8; stroke: #cccccc; stroke-linejoin: miter"/>
    </g>
    <g id="patch_47">
     <path d="M 653.573197 540.885697 
L 673.573197 540.885697 
L 673.573197 533.885697 
L 653.573197 533.885697 
z
" style="fill: #00b4d8"/>
    </g>
    <g id="text_75">
     <!-- Load -->
     <g transform="translate(681.573197 540.885697) scale(0.1 -0.1)">
      <defs>
       <path id="DejaVuSans-4c" d="M 628 4666 
L 1259 4666 
L 1259 531 
L 3531 531 
L 3531 0 
L 628 0 
L 628 4666 
z
" transform="scale(0.015625)"/>
      </defs>
      <use xlink:href="#DejaVuSans-4c"/>
      <use xlink:href="#DejaVuSans-6f" x="53.962891"/>
      <use xlink:href="#DejaVuSans-61" x="115.144531"/>
      <use xlink:href="#DejaVuSans-64" x="176.423828"/>
     </g>
    </g>
    <g id="patch_48">
     <path d="M 653.573197 555.563823 
L 673.573197 555.563823 
L 673.573197 548.563823 
L 653.573197 548.563823 
z
" style="fill: #90e0ef"/>
    </g>
    <g id="text_76">
     <!-- Store -->
     <g transform="translate(681.573197 555.563823) scale(0.1 -0.1)">
      <use xlink:href="#DejaVuSans-53"/>
      <use xlink:href="#DejaVuSans-74" x="63.476562"/>
      <use xlink:href="#DejaVuSans-6f" x="102.685547"/>
      <use xlink:href="#DejaVuSans-72" x="163.867188"/>
      <use xlink:href="#DejaVuSans-65" x="202.730469"/>
     </g>
    </g>
   </g>
  </g>
  <g id="text_77">
   <!-- Execution profile for vector_mac_vm_uint8 -->
   <g transform="translate(231.94875 12.118365) scale(0.12 -0.12)">
    <defs>
     <path id="DejaVuSans-78" d="M 3513 3500 
L 2247 1797 
L 3578 0 
L 2900 0 
L 1881 1375 
L 863 0 
L 184 0 
L 1544 1831 
L 300 3500 
L 978 3500 
L 1906 2253 
L 2834 3500 
L 3513 3500 
z
" transform="scale(0.015625)"/>
     <path id="DejaVuSans-66" d="M 2375 4863 
L 2375 4384 
L 1825 4384 
Q 1516 4384 1395 4259 
Q 1275 4134 1275 3809 
L 1275 3500 
L 2222 3500 
L 2222 3053 
L 1275 3053 
L 1275 0 
L 697 0 
L 697 3053 
L 147 3053 
L 147 3500 
L 697 3500 
L 697 3744 
Q 697 4328 969 4595 
Q 1241 4863 1831 4863 
L 2375 4863 
z
" transform="scale(0.015625)"/>
     <path id="DejaVuSans-76" d="M 191 3500 
L 800 3500 
L 1894 563 
L 2988 3500 
L 3597 3500 
L 2284 0 
L 1503 0 
L 191 3500 
z
" transform="scale(0.015625)"/>
     <path id="DejaVuSans-5f" d="M 3263 -1063 
L 3263 -1509 
L -63 -1509 
L -63 -1063 
L 3263 -1063 
z
" transform="scale(0.015625)"/>
     <path id="DejaVuSans-6d" d="M 3328 2828 
Q 3544 3216 3844 3400 
Q 4144 3584 4550 3584 
Q 5097 3584 5394 3201 
Q 5691 2819 5691 2113 
L 5691 0 
L 5113 0 
L 5113 2094 
Q 5113 2597 4934 2840 
Q 4756 3084 4391 3084 
Q 3944 3084 3684 2787 
Q 3425 2491 3425 1978 
L 3425 0 
L 2847 0 
L 2847 2094 
Q 2847 2600 2669 2842 
Q 2491 3084 2119 3084 
Q 1678 3084 1418 2786 
Q 1159 2488 1159 1978 
L 1159 0 
L 581 0 
L 581 3500 
L 1159 3500 
L 1159 2956 
Q 1356 3278 1631 3431 
Q 1906 3584 2284 3584 
Q 2666 3584 2933 3390 
Q 3200 3197 3328 2828 
z
" transform="scale(0.015625)"/>
    </defs>
    <use xlink:href="#DejaVuSans-45"/>
    <use xlink:href="#DejaVuSans-78" x="63.183594"/>
    <use xlink:href="#DejaVuSans-65" x="119.238281"/>
    <use xlink:href="#DejaVuSans-63" x="180.761719"/>
    <use xlink:href="#DejaVuSans-75" x="235.742188"/>
    <use xlink:href="#DejaVuSans-74" x="299.121094"/>
    <use xlink:href="#DejaVuSans-69" x="338.330078"/>
    <use xlink:href="#DejaVuSans-6f" x="366.113281"/>
    <use xlink:href="#DejaVuSans-6e" x="427.294922"/>
    <use xlink:href="#DejaVuSans-20" x="490.673828"/>
    <use xlink:href="#DejaVuSans-70" x="522.460938"/>
    <use xlink:href="#DejaVuSans-72" x="585.9375"/>
    <use xlink:href="#DejaVuSans-6f" x="624.800781"/>
    <use xlink:href="#DejaVuSans-66" x="685.982422"/>
    <use xlink:href="#DejaVuSans-69" x="721.1875"/>
    <use xlink:href="#DejaVuSans-6c" x="748.970703"/>
    <use xlink:href="#DejaVuSans-65" x="776.753906"/>
    <use xlink:href="#DejaVuSans-20" x="838.277344"/>
    <use xlink:href="#DejaVuSans-66" x="870.064453"/>
    <use xlink:href="#DejaVuSans-6f" x="905.269531"/>
    <use xlink:href="#DejaVuSans-72" x="966.451172"/>
    <use xlink:href="#DejaVuSans-20" x="1007.564453"/>
    <use xlink:href="#DejaVuSans-76" x="1039.351562"/>
    <use xlink:href="#DejaVuSans-65" x="1098.53125"/>
    <use xlink:href="#DejaVuSans-63" x="1160.054688"/>
    <use xlink:href="#DejaVuSans-74" x="1215.035156"/>
    <use xlink:href="#DejaVuSans-6f" x="1254.244141"/>
    <use xlink:href="#DejaVuSans-72" x="1315.425781"/>
    <use xlink:href="#DejaVuSans-5f" x="1356.539062"/>
    <use xlink:href="#DejaVuSans-6d" x="1406.539062"/>
    <use xlink:href="#DejaVuSans-61" x="1503.951172"/>
    <use xlink:href="#DejaVuSans-63" x="1565.230469"/>
    <use xlink:href="#DejaVuSans-5f" x="1620.210938"/>
    <use xlink:href="#DejaVuSans-76" x="1670.210938"/>
    <use xlink:href="#DejaVuSans-6d" x="1729.390625"/>
    <use xlink:href="#DejaVuSans-5f" x="1826.802734"/>
    <use xlink:href="#DejaVuSans-75" x="1876.802734"/>
    <use xlink:href="#DejaVuSans-69" x="1940.181641"/>
    <use xlink:href="#DejaVuSans-6e" x="1967.964844"/>
    <use xlink:href="#DejaVuSans-74" x="2031.34375"/>
    <use xlink:href="#DejaVuSans-38" x="2070.552734"/>
   </g>
   <!-- Instructions profiled: 54454 -->
   <g transform="translate(277.081875 25.88949) scale(0.12 -0.12)">
    <defs>
     <path id="DejaVuSans-3a" d="M 750 794 
L 1409 794 
L 1409 0 
L 750 0 
L 750 794 
z
M 750 3309 
L 1409 3309 
L 1409 2516 
L 750 2516 
L 750 3309 
z
" transform="scale(0.015625)"/>
    </defs>
    <use xlink:href="#DejaVuSans-49"/>
    <use xlink:href="#DejaVuSans-6e" x="29.492188"/>
    <use xlink:href="#DejaVuSans-73" x="92.871094"/>
    <use xlink:href="#DejaVuSans-74" x="144.970703"/>
    <use xlink:href="#DejaVuSans-72" x="184.179688"/>
    <use xlink:href="#DejaVuSans-75" x="225.292969"/>
    <use xlink:href="#DejaVuSans-63" x="288.671875"/>
    <use xlink:href="#DejaVuSans-74" x="343.652344"/>
    <use xlink:href="#DejaVuSans-69" x="382.861328"/>
    <use xlink:href="#DejaVuSans-6f" x="410.644531"/>
    <use xlink:href="#DejaVuSans-6e" x="471.826172"/>
    <use xlink:href="#DejaVuSans-73" x="535.205078"/>
    <use xlink:href="#DejaVuSans-20" x="587.304688"/>
    <use xlink:href="#DejaVuSans-70" x="619.091797"/>
    <use xlink:href="#DejaVuSans-72" x="682.568359"/>
    <use xlink:href="#DejaVuSans-6f" x="721.431641"/>
    <use xlink:href="#DejaVuSans-66" x="782.613281"/>
    <use xlink:href="#DejaVuSans-69" x="817.818359"/>
    <use xlink:href="#DejaVuSans-6c" x="845.601562"/>
    <use xlink:href="#DejaVuSans-65" x="873.384766"/>
    <use xlink:href="#DejaVuSans-64" x="934.908203"/>
    <use xlink:href="#DejaVuSans-3a" x="998.384766"/>
    <use xlink:href="#DejaVuSans-20" x="1032.076172"/>
    <use xlink:href="#DejaVuSans-35" x="1063.863281"/>
    <use xlink:href="#DejaVuSans-34" x="1127.486328"/>
    <use xlink:href="#DejaVuSans-34" x="1191.109375"/>
    <use xlink:href="#DejaVuSans-35" x="1254.732422"/>
    <use xlink:href="#DejaVuSans-34" x="1318.355469"/>
   </g>
  </g>
 </g>
 <defs>
  <clipPath id="p3ca7e91281">
   <rect x="52.234615" y="34.385595" width="664.765145" height="351.863496"/>
  </clipPath>
  <clipPath id="p4e6c7399f4">
   <rect x="52.234615" y="422.605821" width="664.765145" height="144.037689"/>
  </clipPath>
 </defs>
</svg>
